<?xml version="1.0" encoding="UTF-8"?>
<!-- Generator: visioncortex VTracer 0.6.4 -->
<svg version="1.1" xmlns="http://www.w3.org/2000/svg" width="2172" height="724">
<path d="M0 0 C0.72 -0.01 1.45 -0.01 2.19 -0.02 C4.59 -0.03 6.98 -0.03 9.38 -0.03 C11.04 -0.03 12.71 -0.03 14.37 -0.04 C17.87 -0.05 21.36 -0.05 24.85 -0.04 C29.32 -0.04 33.79 -0.05 38.26 -0.08 C41.7 -0.09 45.14 -0.09 48.58 -0.09 C50.23 -0.09 51.88 -0.09 53.53 -0.1 C55.83 -0.12 58.14 -0.11 60.45 -0.1 C61.76 -0.1 63.07 -0.1 64.43 -0.1 C68.09 0.3 69.98 1 72.85 3.27 C74.07 6.93 74.26 9.43 73.85 13.27 C72.17 15.59 70.72 17.26 68.67 19.18 C68.13 19.71 67.59 20.24 67.04 20.78 C65.33 22.46 63.59 24.12 61.85 25.77 C60.72 26.89 59.58 28 58.44 29.11 C53.24 34.2 47.95 39.16 42.43 43.91 C40.47 45.61 38.65 47.41 36.85 49.27 C34.39 51.77 31.9 54.14 29.23 56.4 C25.15 59.92 21.31 63.67 17.48 67.46 C16.86 68.07 16.24 68.68 15.6 69.3 C15.02 69.88 14.43 70.47 13.83 71.07 C13.31 71.59 12.78 72.11 12.24 72.65 C10.73 74.42 9.86 76.19 8.85 78.27 C7.05 80.38 7.05 80.38 4.98 82.46 C4.3 83.16 3.62 83.85 2.92 84.57 C0.75 86.36 -0.48 86.64 -3.15 87.27 C-5.05 88.74 -5.05 88.74 -6.77 90.59 C-7.36 91.18 -7.95 91.78 -8.56 92.39 C-10.15 94.28 -11.05 96.07 -12.15 98.27 C-13.25 99.66 -14.4 101.02 -15.58 102.34 C-16.48 103.34 -16.48 103.34 -17.39 104.37 C-18.5 105.57 -19.64 106.75 -20.81 107.9 C-22.26 109.26 -22.26 109.26 -23.15 111.27 C-25.29 112.5 -27.37 113.35 -29.71 114.15 C-32.62 115.49 -33.36 116.63 -35.15 119.27 C-45.37 131.86 -45.37 131.86 -49.15 132.74 C-51.67 133.41 -52.41 134.37 -54.02 136.4 C-54.54 137.04 -55.06 137.67 -55.6 138.33 C-56.11 138.97 -56.62 139.61 -57.15 140.27 C-61.66 145.81 -66.66 150.73 -71.85 155.63 C-74.2 158.34 -74.86 159.76 -75.15 163.27 C-74.53 163.36 -73.91 163.44 -73.27 163.52 C-70.45 164.52 -70.43 165.64 -69.15 168.27 C-66.09 171.32 -66.09 171.32 -62.15 172.27 C-60.98 173.38 -59.82 174.49 -58.71 175.65 C-56.9 177.53 -55.03 179.36 -53.16 181.19 C-51.72 182.62 -50.27 184.04 -48.83 185.46 C-48.09 186.19 -47.35 186.91 -46.59 187.66 C-45.89 188.35 -45.19 189.04 -44.47 189.76 C-43.83 190.38 -43.19 191.01 -42.54 191.66 C-41.15 193.27 -41.15 193.27 -41.15 195.27 C-40.28 195.65 -40.28 195.65 -39.4 196.04 C-36.87 197.43 -35.15 199.01 -33.11 201.05 C-32.36 201.79 -31.62 202.53 -30.85 203.3 C-30.08 204.07 -29.31 204.85 -28.52 205.65 C-27.74 206.42 -26.97 207.19 -26.17 207.98 C-25.43 208.72 -24.68 209.47 -23.92 210.24 C-23.24 210.91 -22.57 211.59 -21.87 212.29 C-20.19 214.23 -19.25 215.98 -18.15 218.27 C-16.33 220.48 -14.29 222.45 -12.27 224.46 C-11.48 225.28 -11.48 225.28 -10.67 226.12 C-7.91 229.1 -7.91 229.1 -4.3 230.62 C-0.98 231.63 0.78 233.83 3.21 236.26 C3.71 236.76 4.21 237.26 4.72 237.78 C5.78 238.83 6.83 239.89 7.87 240.96 C9.47 242.58 11.08 244.19 12.7 245.8 C20.6 253.74 20.6 253.74 21.76 256.18 C23.07 258.69 24.66 260.32 26.67 262.32 C27.46 263.11 28.24 263.89 29.05 264.7 C29.9 265.54 30.75 266.38 31.62 267.24 C32.5 268.11 33.37 268.98 34.27 269.88 C36.59 272.19 38.92 274.5 41.24 276.8 C43.6 279.13 45.94 281.47 48.29 283.81 C51.74 287.24 55.19 290.67 58.65 294.1 C59.38 294.83 60.11 295.56 60.87 296.31 C62.07 297.5 63.29 298.68 64.52 299.84 C67.8 302.96 67.8 302.96 68.35 306.34 C67.8 309.58 67.07 310.89 64.85 313.27 C64.47 313.8 64.09 314.32 63.7 314.86 C60.82 317.07 58.24 316.66 54.66 316.66 C53.57 316.67 53.57 316.67 52.46 316.68 C50.04 316.69 47.63 316.68 45.22 316.67 C43.54 316.68 41.86 316.68 40.18 316.68 C36.65 316.69 33.12 316.68 29.6 316.67 C25.09 316.65 20.59 316.66 16.08 316.68 C12.61 316.69 9.14 316.68 5.66 316.68 C4 316.67 2.34 316.68 0.68 316.68 C-1.65 316.69 -3.98 316.68 -6.31 316.66 C-6.99 316.67 -7.66 316.67 -8.36 316.68 C-16.2 316.58 -21.83 314.23 -27.34 308.68 C-28.27 307.76 -29.2 306.83 -30.17 305.87 C-31.16 304.86 -32.15 303.85 -33.14 302.84 C-34.17 301.8 -35.21 300.76 -36.25 299.72 C-38.42 297.55 -40.57 295.37 -42.72 293.19 C-45.47 290.39 -48.24 287.61 -51.01 284.83 C-53.15 282.69 -55.28 280.54 -57.42 278.39 C-58.43 277.36 -59.45 276.34 -60.47 275.31 C-61.9 273.88 -63.32 272.44 -64.73 271 C-65.54 270.18 -66.34 269.36 -67.18 268.52 C-68.97 266.47 -69.99 264.7 -71.15 262.27 C-72.45 261.56 -73.79 260.9 -75.15 260.27 C-77.03 258.65 -77.03 258.65 -78.83 256.84 C-79.74 255.94 -79.74 255.94 -80.66 255.03 C-82.15 253.27 -82.15 253.27 -83.15 250.27 C-84.14 250.93 -85.13 251.59 -86.15 252.27 C-86.15 251.28 -86.15 250.29 -86.15 249.27 C-87.47 248.94 -88.79 248.61 -90.15 248.27 C-90.26 247.43 -90.26 247.43 -90.37 246.56 C-91.43 243.45 -93.18 241.95 -95.55 239.68 C-96.44 238.82 -97.33 237.95 -98.25 237.06 C-100.13 235.25 -102.02 233.44 -103.91 231.63 C-104.8 230.76 -105.69 229.89 -106.61 229 C-107.43 228.21 -108.25 227.42 -109.1 226.61 C-111.2 224.22 -112.08 222.24 -113.15 219.27 C-114.99 217.49 -114.99 217.49 -117.15 216.09 C-120.47 213.77 -122.9 211.57 -125.51 208.42 C-129.96 203.21 -134.84 198.39 -139.69 193.55 C-141.35 191.89 -142.99 190.22 -144.64 188.55 C-145.7 187.49 -146.76 186.43 -147.81 185.38 C-148.3 184.88 -148.8 184.38 -149.3 183.87 C-151.59 181.6 -153.04 180.31 -156.15 179.27 C-156.81 177.94 -157.48 176.61 -158.15 175.27 C-161.59 171.44 -161.59 171.44 -166.15 169.27 C-167.27 167.27 -167.27 167.27 -168.15 165.27 C-168.48 164.94 -168.81 164.61 -169.15 164.27 C-169.83 160.03 -170.04 157.64 -167.64 153.99 C-164.46 150.36 -161.03 147.17 -157.39 144.02 C-152.97 140.18 -148.87 136.07 -144.77 131.9 C-143.37 130.47 -141.97 129.05 -140.56 127.63 C-139.95 127.01 -139.34 126.39 -138.71 125.75 C-137.15 124.27 -137.15 124.27 -135.15 123.27 C-135.15 122.28 -135.15 121.29 -135.15 120.27 C-134.43 120.05 -133.72 119.83 -132.99 119.6 C-129.55 118 -127.28 115.77 -124.69 113.08 C-124.18 112.56 -123.68 112.05 -123.15 111.52 C-121.54 109.88 -119.94 108.24 -118.33 106.59 C-116.74 104.96 -115.14 103.33 -113.55 101.71 C-112.55 100.7 -111.57 99.69 -110.58 98.68 C-107.91 95.95 -105.16 93.39 -102.28 90.89 C-98.08 87.26 -94.14 83.43 -90.22 79.51 C-89.5 78.8 -88.78 78.09 -88.05 77.35 C-86.55 75.86 -85.05 74.36 -83.55 72.87 C-81.26 70.58 -78.96 68.3 -76.66 66.01 C-75.2 64.56 -73.74 63.1 -72.28 61.64 C-71.59 60.96 -70.91 60.28 -70.2 59.58 C-69.25 58.62 -69.25 58.62 -68.28 57.65 C-67.72 57.09 -67.16 56.53 -66.59 55.96 C-65.05 54.31 -65.05 54.31 -64.1 52.15 C-63.15 50.27 -63.15 50.27 -60.71 48.84 C-57.68 46.99 -56.88 45.32 -55.15 42.27 C-53.5 40.58 -51.83 38.92 -50.15 37.27 C-49.17 36.29 -48.2 35.31 -47.22 34.32 C-44.41 31.47 -41.59 28.63 -38.77 25.79 C-37.56 24.56 -36.34 23.34 -35.13 22.11 C-33.38 20.33 -31.62 18.56 -29.85 16.79 C-29.31 16.23 -28.77 15.68 -28.21 15.11 C-26.89 13.79 -25.52 12.53 -24.15 11.27 C-23.49 11.27 -22.83 11.27 -22.15 11.27 C-22.15 10.61 -22.15 9.95 -22.15 9.27 C-18.88 6.19 -16.53 4.99 -12.15 4.27 C-11.49 3.61 -10.83 2.95 -10.15 2.27 C-6.41 -0.21 -4.46 0.02 0 0 Z M-6.15 1.27 C-6.15 1.6 -6.15 1.93 -6.15 2.27 C17.94 2.27 42.03 2.27 66.85 2.27 C66.85 1.94 66.85 1.61 66.85 1.27 C42.76 1.27 18.67 1.27 -6.15 1.27 Z M-77.15 157.27 C-76.15 161.27 -76.15 161.27 -76.15 161.27 Z M-13.15 314.27 C-13.15 314.6 -13.15 314.93 -13.15 315.27 C11.27 315.27 35.69 315.27 60.85 315.27 C60.85 314.94 60.85 314.61 60.85 314.27 C36.43 314.27 12.01 314.27 -13.15 314.27 Z " fill="#000000" transform="translate(318.14599609375,195.725341796875)"/>
<path d="M0 0 C0.5 1.49 0.5 1.49 1 3 C1.63 3.32 2.27 3.63 2.92 3.96 C6.18 5.59 6.88 7.85 8.21 11.13 C9.83 17.04 9.57 23.13 9.53 29.22 C9.53 30.69 9.54 32.15 9.54 33.62 C9.55 36.68 9.54 39.75 9.52 42.81 C9.5 46.71 9.51 50.62 9.54 54.52 C9.55 57.55 9.55 60.57 9.54 63.6 C9.53 65.04 9.54 66.48 9.55 67.92 C9.6 78.41 8.38 86.05 1.93 94.47 C1.09 95.59 1.09 95.59 0.23 96.73 C-0.36 97.5 -0.95 98.27 -1.56 99.06 C-2.82 100.73 -4.08 102.41 -5.34 104.08 C-5.96 104.91 -6.58 105.74 -7.22 106.59 C-9.8 110.08 -12.25 113.65 -14.69 117.25 C-18.25 122.5 -21.91 127.65 -25.69 132.75 C-27.03 134.58 -28.38 136.42 -29.72 138.26 C-30.56 139.4 -31.41 140.54 -32.26 141.67 C-33.42 143.23 -34.55 144.8 -35.69 146.38 C-36.33 147.25 -36.97 148.12 -37.64 149.02 C-39.53 153.17 -39.92 156.52 -39 161 C-37.4 164.23 -35.31 166.94 -33.06 169.75 C-31.86 171.32 -30.67 172.9 -29.47 174.47 C-28.59 175.62 -28.59 175.62 -27.68 176.79 C-25.35 179.86 -23.16 183.01 -21 186.19 C-18.69 189.56 -16.36 192.9 -13.94 196.19 C-12 199 -12 199 -12 201 C-11.34 201 -10.68 201 -10 201 C-8.39 203.24 -6.9 205.47 -5.44 207.81 C-5.03 208.46 -4.61 209.1 -4.19 209.76 C-2.47 212.48 -1.02 214.94 0 218 C0.66 218 1.32 218 2 218 C2.33 219.32 2.66 220.64 3 222 C3.66 222 4.32 222 5 222 C8.58 229.47 8.44 236.6 8.4 244.75 C8.4 246.18 8.4 247.61 8.41 249.04 C8.41 252.02 8.41 255.01 8.39 257.99 C8.37 261.8 8.38 265.61 8.4 269.41 C8.41 272.36 8.41 275.31 8.4 278.26 C8.4 279.66 8.4 281.06 8.41 282.47 C8.46 296.34 8.46 296.34 5 302 C3.04 303.4 1.05 304.74 -1 306 C-1.32 306.66 -1.63 307.32 -1.96 308.01 C-3 310 -3 310 -6.57 311.73 C-13.11 313.66 -19.89 313.45 -26.66 313.39 C-28.93 313.38 -31.2 313.39 -33.47 313.41 C-51.49 313.44 -51.49 313.44 -58.4 308.17 C-58.91 307.51 -59.42 306.86 -59.94 306.19 C-60.72 305.22 -60.72 305.22 -61.53 304.23 C-66.12 297.28 -66.41 292.09 -66.31 283.91 C-66.3 282.04 -66.3 282.04 -66.3 280.13 C-66.29 277.37 -66.27 274.6 -66.25 271.84 C-66.21 267.27 -66.19 262.71 -66.17 258.14 C-66.15 252.17 -66.12 246.19 -66.08 240.21 C-66 227.07 -65.96 213.93 -65.93 200.78 C-65.87 180.16 -65.8 159.54 -65.71 138.92 C-65.66 125.75 -65.61 112.58 -65.57 99.41 C-65.54 89.98 -65.5 80.56 -65.46 71.13 C-65.43 65.56 -65.41 59.99 -65.4 54.41 C-65.38 49.23 -65.36 44.05 -65.33 38.86 C-65.32 36.97 -65.32 35.08 -65.32 33.18 C-65.31 30.6 -65.3 28.01 -65.28 25.43 C-65.28 24.68 -65.28 23.94 -65.28 23.18 C-65.2 14.96 -63.59 8.68 -57.89 2.57 C-55.36 0.47 -53.25 0 -50 0 C-50 -0.66 -50 -1.32 -50 -2 C-37.48 -6.17 -11.67 -7.06 0 0 Z M-47 -2 C-47 -1.67 -47 -1.34 -47 -1 C-34.13 -1 -21.26 -1 -8 -1 C-8 -1.33 -8 -1.66 -8 -2 C-20.87 -2 -33.74 -2 -47 -2 Z M-62 11 C-61 13 -61 13 -61 13 Z M-63 13 C-63 28.18 -63 43.36 -63 59 C-62.67 59 -62.34 59 -62 59 C-62 43.82 -62 28.64 -62 13 C-62.33 13 -62.66 13 -63 13 Z M7 16 C7 34.81 7 53.62 7 73 C7.33 73 7.66 73 8 73 C8 54.19 8 35.38 8 16 C7.67 16 7.34 16 7 16 Z M-64 66 C-63 68 -63 68 -63 68 Z M-64 69 C-64 134.67 -64 200.34 -64 268 C-63.67 268 -63.34 268 -63 268 C-63 202.33 -63 136.66 -63 69 C-63.33 69 -63.66 69 -64 69 Z M6 78 C7 82 7 82 7 82 Z M-42 151 C-42 154.3 -42 157.6 -42 161 C-41.67 161 -41.34 161 -41 161 C-41 157.7 -41 154.4 -41 151 C-41.33 151 -41.66 151 -42 151 Z M-41 161 C-40 163 -40 163 -40 163 Z M5 229 C6 232 6 232 6 232 Z M6 234 C6 252.81 6 271.62 6 291 C6.33 291 6.66 291 7 291 C7 272.19 7 253.38 7 234 C6.67 234 6.34 234 6 234 Z M-65 278 C-65 282.95 -65 287.9 -65 293 C-64.67 293 -64.34 293 -64 293 C-64 288.05 -64 283.1 -64 278 C-64.33 278 -64.66 278 -65 278 Z M-64 293 C-63 297 -63 297 -63 297 Z M5 294 C6 297 6 297 6 297 Z M-50 310 C-46 311 -46 311 -46 311 Z M-12 310 C-8 311 -8 311 -8 311 Z " fill="#000000" transform="translate(135,199)"/>
<path d="M0 0 C9.57 0 19.14 0 29 0 C32.84 8.32 36.59 16.62 40.12 25.06 C43.16 32.28 46.2 39.48 49.31 46.66 C49.86 47.93 50.41 49.2 50.95 50.47 C52 52.9 53.06 55.32 54.12 57.75 C56.43 63.11 58.61 68.32 60 74 C62.95 71.57 63.32 69.68 64 66 C64.66 65.67 65.32 65.34 66 65 C66.32 62.8 66.38 60.64 66.46 58.42 C67.18 55.19 68.91 53.57 71 51 C72.46 48.36 73.69 45.62 74.94 42.88 C75.29 42.13 75.63 41.38 75.99 40.61 C77.54 37.26 79.04 33.91 80.45 30.51 C80.86 29.54 81.27 28.57 81.69 27.56 C82.02 26.72 82.36 25.87 82.7 25 C84.49 22.25 85.83 21.82 89 21 C92.66 20.73 92.66 20.73 96.62 20.75 C97.94 20.74 99.25 20.74 100.6 20.73 C104 21 104 21 107 23 C107.36 25 107.68 27 108 29 C109.05 31.89 110.32 34.67 111.6 37.46 C111.95 38.25 112.31 39.04 112.67 39.86 C113.79 42.37 114.93 44.87 116.06 47.38 C116.83 49.08 117.6 50.79 118.36 52.5 C120.23 56.67 122.11 60.83 124 65 C124.66 64.67 125.32 64.34 126 64 C126.99 65.49 126.99 65.49 128 67 C131.53 66.07 132.76 65.4 134.68 62.23 C135.17 61.06 135.66 59.89 136.16 58.68 C136.44 58.04 136.71 57.4 136.99 56.74 C137.89 54.65 138.76 52.54 139.62 50.44 C140.24 48.99 140.85 47.54 141.47 46.09 C142.72 43.15 143.97 40.2 145.2 37.26 C147.78 31.14 150.45 25.07 153.12 19 C153.56 18 154 17 154.45 15.97 C156.82 10.56 159.31 5.26 162 0 C166.29 -0.03 170.58 -0.05 174.88 -0.06 C176.71 -0.08 176.71 -0.08 178.58 -0.09 C180.33 -0.09 180.33 -0.09 182.12 -0.1 C183.74 -0.11 183.74 -0.11 185.39 -0.11 C188 0 188 0 190 1 C189.48 6.94 187.66 11.51 185.12 16.88 C184.29 18.67 183.47 20.47 182.64 22.27 C182.2 23.21 181.77 24.15 181.32 25.12 C179.13 29.89 177.04 34.7 174.94 39.5 C174.02 41.58 173.1 43.67 172.19 45.75 C171.69 46.88 171.19 48.01 170.68 49.17 C170.28 50.08 170.28 50.08 169.87 51.01 C169.26 52.42 168.64 53.82 168.02 55.23 C165.86 60.15 163.7 65.06 161.53 69.97 C160.8 71.61 160.08 73.25 159.36 74.89 C158.35 77.2 157.33 79.5 156.31 81.81 C156 82.51 155.7 83.2 155.39 83.92 C154.15 86.7 153.17 88.83 151 91 C149.68 93.25 148.99 95.04 148.5 97.62 C148 100 148 100 146 102 C145.6 102.53 145.19 103.06 144.78 103.61 C142.11 105.7 139.93 105.34 136.58 105.29 C135.33 105.28 134.07 105.27 132.78 105.26 C130.82 105.23 130.82 105.23 128.81 105.19 C127.48 105.17 126.14 105.16 124.81 105.15 C121.54 105.11 118.27 105.06 115 105 C113.04 100.96 111.08 96.92 109.13 92.88 C108.46 91.51 107.8 90.14 107.13 88.77 C106.17 86.79 105.21 84.81 104.26 82.83 C103.96 82.22 103.67 81.61 103.36 80.99 C98.7 71.33 98.7 71.33 99 66 C96.21 64.89 96.21 64.89 94 65 C93.57 65.93 93.13 66.86 92.69 67.81 C91.23 70.57 90.12 71.88 88 74 C86.18 77.85 85.12 81.9 84 86 C83.34 86 82.68 86 82 86 C82.07 86.69 82.14 87.37 82.21 88.08 C81.93 91.93 80.49 94.38 78.62 97.75 C78 98.9 77.37 100.05 76.73 101.23 C75 104 75 104 73 105 C68.71 105.27 64.42 105.23 60.12 105.25 C58.33 105.28 58.33 105.28 56.5 105.31 C54.77 105.32 54.77 105.32 53.01 105.33 C51.95 105.34 50.9 105.35 49.81 105.36 C46.62 104.95 45.26 104.25 43 102 C42.59 100.01 42.27 98.01 42 96 C41.03 93.49 40.04 91.07 38.94 88.62 C38.66 87.98 38.37 87.34 38.08 86.68 C37.4 85.12 36.7 83.56 36 82 C35.34 82 34.68 82 34 82 C32.48 78.63 30.99 75.26 29.5 71.88 C29.07 70.92 28.64 69.97 28.2 68.99 C26.02 64.01 24.83 60.49 25 55 C24.04 52.56 23.06 50.33 21.88 48 C21.23 46.69 20.59 45.37 19.96 44.06 C19.63 43.39 19.31 42.73 18.97 42.04 C17.41 38.75 15.98 35.41 14.56 32.06 C13.82 30.32 13.82 30.32 13.07 28.54 C12.71 27.7 12.36 26.86 12 26 C11.34 26 10.68 26 10 26 C8.89 23.65 7.79 21.29 6.69 18.94 C6.38 18.28 6.07 17.62 5.75 16.95 C4.83 14.97 3.91 12.99 3 11 C2.7 10.37 2.41 9.73 2.1 9.08 C0.58 5.73 0 3.76 0 0 Z M28 2 C29 4 29 4 29 4 Z M162 2 C163 4 163 4 163 4 Z M161 4 C162 6 162 6 162 6 Z M160 6 C161 8 161 8 161 8 Z M31 9 C32 11 32 11 32 11 Z M5 10 C6 12 6 12 6 12 Z M158 11 C159 13 159 13 159 13 Z M157 13 C158 15 158 15 158 15 Z M33 14 C34 16 34 16 34 16 Z M34 16 C35 18 35 18 35 18 Z M154 20 C155 22 155 22 155 22 Z M10 21 C10 21.99 10 22.98 10 24 C10.66 23.67 11.32 23.34 12 23 C11.34 22.34 10.68 21.68 10 21 Z M153 22 C154 24 154 24 154 24 Z M37 23 C38 25 38 25 38 25 Z M84 26 C85 28 85 28 85 28 Z M39 28 C40 30 40 30 40 30 Z M83 28 C84 30 84 30 84 30 Z M150 29 C151 31 151 31 151 31 Z M149 31 C150 33 150 33 150 33 Z M175 32 C176 34 176 34 176 34 Z M148 34 C149 36 149 36 149 36 Z M174 34 C175 36 175 36 175 36 Z M42 35 C43 37 43 37 43 37 Z M147 36 C148 38 148 38 148 38 Z M173 37 C174 39 174 39 174 39 Z M78 39 C79 41 79 41 79 41 Z M146 39 C147 41 147 41 147 41 Z M172 39 C173 41 173 41 173 41 Z M44 40 C45 42 45 42 45 42 Z M77 41 C78 43 78 43 78 43 Z M145 41 C146 43 146 43 146 43 Z M171 41 C172 43 172 43 172 43 Z M45 42 C46 44 46 44 46 44 Z M144 43 C145 45 145 45 145 45 Z M170 43 C171 46 171 46 171 46 Z M46 44 C47 46 47 46 47 46 Z M143 45 C144 47 144 47 144 47 Z M169 46 C170 48 170 48 170 48 Z M142 48 C143 50 143 50 143 50 Z M168 48 C169 50 169 50 169 50 Z M48 49 C49 51 49 51 49 51 Z M73 49 C74 51 74 51 74 51 Z M141 50 C142 52 142 52 142 52 Z M140 52 C141 54 141 54 141 54 Z M50 54 C51 56 51 56 51 56 Z M164 57 C165 59 165 59 165 59 Z M26 58 C27 60 27 60 27 60 Z M163 59 C164 61 164 61 164 61 Z M27 61 C28 63 28 63 28 63 Z M93 61 C94 63 94 63 94 63 Z M162 62 C163 64 163 64 163 64 Z M28 63 C29 65 29 65 29 65 Z M92 63 C93 65 93 65 93 65 Z M161 64 C162 66 162 66 162 66 Z M29 65 C30 67 30 67 30 67 Z M30 68 C31 70 31 70 31 70 Z M100 68 C101 70 101 70 101 70 Z M126 69 C127 71 127 71 127 71 Z M31 70 C32 72 32 72 32 72 Z M32 73 C33 75 33 75 33 75 Z M157 73 C158 75 158 75 158 75 Z M33 75 C34 77 34 77 34 77 Z M156 75 C157 77 157 77 157 77 Z M34 77 C35 79 35 79 35 79 Z M104 77 C105 79 105 79 105 79 Z M105 79 C106 81 106 81 106 81 Z M154 80 C155 82 155 82 155 82 Z M153 82 C154 84 154 84 154 84 Z M80 88 C81 90 81 90 81 90 Z M111 92 C112 94 112 94 112 94 Z M147 95 C148 97 148 97 148 97 Z M75 98 C76 100 76 100 76 100 Z M74 100 C75 102 75 102 75 102 Z " fill="#000000" transform="translate(1914,318)"/>
<path d="M0 0 C1.31 -0.01 2.61 -0.03 3.96 -0.04 C5.38 -0.05 6.79 -0.05 8.21 -0.06 C8.94 -0.07 9.66 -0.07 10.4 -0.07 C14.22 -0.09 18.04 -0.11 21.85 -0.12 C25.77 -0.13 29.69 -0.16 33.61 -0.2 C36.64 -0.23 39.68 -0.24 42.71 -0.24 C44.15 -0.25 45.6 -0.26 47.04 -0.28 C58.69 -0.42 67.91 1.45 77.67 8.02 C79.66 9.37 79.66 9.37 82.83 10.74 C85.72 12.32 86.3 13.19 87.46 16.18 C89.38 18.16 89.38 18.16 91.33 19.74 C98.81 28.32 98.67 38.9 98.7 49.68 C98.71 51.84 98.74 54 98.77 56.17 C98.83 64.67 98.33 72.43 94.46 80.18 C95.12 80.51 95.78 80.84 96.46 81.18 C95.47 81.51 94.48 81.84 93.46 82.18 C92.1 83.87 90.99 85.65 89.84 87.49 C88.22 89.47 86.74 90.06 84.46 91.18 C83.1 92.42 81.77 93.69 80.46 94.99 C72.9 101.88 63.38 105.26 53.24 105.35 C51.98 105.37 50.72 105.38 49.43 105.39 C48.05 105.4 46.68 105.41 45.3 105.42 C44.26 105.42 44.26 105.42 43.19 105.43 C39.49 105.45 35.8 105.46 32.1 105.47 C28.31 105.48 24.53 105.52 20.74 105.56 C17.8 105.58 14.86 105.59 11.93 105.6 C10.53 105.6 9.14 105.61 7.75 105.63 C-6.03 105.8 -17.95 103.42 -28.54 94.18 C-31.03 91.62 -33.3 88.95 -35.54 86.18 C-36.68 85.04 -37.84 83.91 -39.03 82.84 C-45.87 75.32 -45.13 63.94 -45.01 54.46 C-44.98 52.05 -44.99 49.64 -45 47.23 C-44.99 39.4 -44.72 32.46 -41.54 25.18 C-40.88 25.18 -40.22 25.18 -39.54 25.18 C-38.46 23.72 -37.46 22.21 -36.48 20.68 C-29.91 11.11 -20.79 3.46 -9.28 0.62 C-6.15 0.11 -3.17 0.03 0 0 Z M-1.54 21.18 C-1.54 21.51 -1.54 21.84 -1.54 22.18 C17.27 22.18 36.08 22.18 55.46 22.18 C55.46 21.85 55.46 21.52 55.46 21.18 C36.65 21.18 17.84 21.18 -1.54 21.18 Z M-12.42 28.99 C-13.47 30.57 -13.47 30.57 -14.54 32.18 C-15.07 32.96 -15.61 33.74 -16.15 34.54 C-18.29 40.14 -17.98 45.61 -17.92 51.55 C-17.93 52.75 -17.94 53.94 -17.95 55.17 C-17.92 64.05 -17.13 71.59 -10.54 78.18 C-5.21 81.36 -0.41 82.29 5.73 82.35 C7.27 82.37 7.27 82.37 8.85 82.39 C9.95 82.4 11.05 82.41 12.19 82.42 C13.91 82.43 13.91 82.43 15.66 82.44 C18.08 82.45 20.51 82.46 22.93 82.47 C25.4 82.48 27.86 82.5 30.33 82.53 C33.91 82.58 37.49 82.59 41.06 82.6 C42.15 82.62 43.25 82.64 44.37 82.66 C52.19 82.63 59.75 81.58 65.71 76.11 C66.14 75.43 66.57 74.75 67.02 74.05 C67.47 73.37 67.93 72.69 68.4 71.98 C71.33 66.98 70.94 61.78 71.18 56.08 C71.27 54.08 71.38 52.09 71.5 50.09 C71.89 40.83 71.12 35.63 65.14 28.36 C58.13 22.65 51.58 22.73 42.84 22.78 C41.63 22.78 40.42 22.77 39.17 22.77 C36.61 22.77 34.05 22.77 31.5 22.79 C27.6 22.8 23.71 22.79 19.81 22.77 C17.32 22.77 14.83 22.77 12.34 22.78 C11.18 22.77 10.03 22.77 8.83 22.76 C1.28 22.83 -7.06 22.93 -12.42 28.99 Z M93.46 27.18 C94.46 29.18 94.46 29.18 94.46 29.18 Z M-41.54 28.18 C-40.54 31.18 -40.54 31.18 -40.54 31.18 Z M94.46 29.18 C95.46 32.18 95.46 32.18 95.46 32.18 Z M-42.54 31.18 C-41.54 35.18 -41.54 35.18 -41.54 35.18 Z M95.46 33.18 C95.46 34.83 95.46 36.48 95.46 38.18 C95.79 38.18 96.12 38.18 96.46 38.18 C96.46 36.53 96.46 34.88 96.46 33.18 C96.13 33.18 95.8 33.18 95.46 33.18 Z M-43.54 35.18 C-43.54 46.4 -43.54 57.62 -43.54 69.18 C-43.21 69.18 -42.88 69.18 -42.54 69.18 C-42.54 57.96 -42.54 46.74 -42.54 35.18 C-42.87 35.18 -43.2 35.18 -43.54 35.18 Z M-18.54 35.18 C-17.54 37.18 -17.54 37.18 -17.54 37.18 Z M71.46 35.18 C72.46 38.18 72.46 38.18 72.46 38.18 Z M-19.54 38.18 C-19.54 47.42 -19.54 56.66 -19.54 66.18 C-19.21 66.18 -18.88 66.18 -18.54 66.18 C-18.54 56.94 -18.54 47.7 -18.54 38.18 C-18.87 38.18 -19.2 38.18 -19.54 38.18 Z M72.46 38.18 C72.46 47.09 72.46 56 72.46 65.18 C72.79 65.18 73.12 65.18 73.46 65.18 C73.46 56.27 73.46 47.36 73.46 38.18 C73.13 38.18 72.8 38.18 72.46 38.18 Z M96.46 38.18 C96.46 47.42 96.46 56.66 96.46 66.18 C96.79 66.18 97.12 66.18 97.46 66.18 C97.46 56.94 97.46 47.7 97.46 38.18 C97.13 38.18 96.8 38.18 96.46 38.18 Z M71.46 65.18 C72.46 67.18 72.46 67.18 72.46 67.18 Z M95.46 67.18 C96.46 71.18 96.46 71.18 96.46 71.18 Z M-42.54 69.18 C-41.54 73.18 -41.54 73.18 -41.54 73.18 Z M94.46 71.18 C95.46 75.18 95.46 75.18 95.46 75.18 Z M-41.54 73.18 C-40.54 76.18 -40.54 76.18 -40.54 76.18 Z M93.46 75.18 C94.46 77.18 94.46 77.18 94.46 77.18 Z M92.46 78.18 C93.46 80.18 93.46 80.18 93.46 80.18 Z M-39.54 79.18 C-38.54 81.18 -38.54 81.18 -38.54 81.18 Z M91.46 80.18 C92.46 82.18 92.46 82.18 92.46 82.18 Z M-0.54 83.18 C-0.54 83.51 -0.54 83.84 -0.54 84.18 C17.28 84.18 35.1 84.18 53.46 84.18 C53.46 83.85 53.46 83.52 53.46 83.18 C35.64 83.18 17.82 83.18 -0.54 83.18 Z " fill="#000000" transform="translate(1799.54345703125,317.822998046875)"/>
<path d="M0 0 C1.23 -0.01 2.45 -0.01 3.72 -0.02 C6.31 -0.03 8.9 -0.03 11.49 -0.04 C15.43 -0.05 19.36 -0.08 23.29 -0.11 C25.82 -0.12 28.35 -0.12 30.88 -0.12 C32.04 -0.14 33.2 -0.15 34.4 -0.16 C49.23 -0.12 61.23 3.74 72.13 13.91 C82.99 25.53 84.79 38.43 84.64 53.83 C84.66 55.07 84.67 56.32 84.68 57.6 C84.66 64.18 84.21 69.84 81.91 76.03 C81.18 78.51 81.16 80.64 81.27 83.2 C80.28 83.53 79.29 83.86 78.27 84.2 C76.76 86.03 76.76 86.03 75.27 88.27 C67.9 98.01 57.26 104.15 45.27 106.2 C43.37 106.3 41.46 106.34 39.55 106.35 C37.86 106.36 37.86 106.36 36.14 106.37 C34.33 106.37 34.33 106.37 32.48 106.37 C31.23 106.37 29.97 106.38 28.68 106.38 C26.03 106.39 23.37 106.39 20.72 106.39 C18.01 106.39 15.31 106.4 12.6 106.41 C8.69 106.43 4.77 106.43 0.86 106.43 C-0.94 106.44 -0.94 106.44 -2.77 106.46 C-18.62 106.41 -29.85 103.48 -41.41 92.29 C-43.71 90.22 -46.08 88.79 -48.73 87.2 C-49.42 85.27 -49.42 85.27 -49.73 83.2 C-50.86 80.65 -51.73 79.2 -53.73 77.2 C-56.94 67.94 -56.94 58.58 -56.61 48.89 C-56.57 47.79 -56.54 46.7 -56.5 45.57 C-56.1 37.17 -55.04 28.07 -49.73 21.2 C-48.74 20.87 -47.75 20.54 -46.73 20.2 C-46.4 19.21 -46.07 18.22 -45.73 17.2 C-44.21 15.77 -44.21 15.77 -42.36 14.33 C-39.94 12.36 -38.69 11.14 -37.11 8.39 C-36.65 7.67 -36.2 6.95 -35.73 6.2 C-34.07 5.83 -32.4 5.5 -30.73 5.2 C-28.01 4.24 -25.33 3.19 -22.64 2.14 C-15.25 -0.24 -7.69 0.03 0 0 Z M-13.73 22.2 C-13.73 22.53 -13.73 22.86 -13.73 23.2 C4.75 23.2 23.23 23.2 42.27 23.2 C42.27 22.87 42.27 22.54 42.27 22.2 C23.79 22.2 5.31 22.2 -13.73 22.2 Z M-49.73 23.2 C-48.73 25.2 -48.73 25.2 -48.73 25.2 Z M-24.04 30.45 C-28.75 38.13 -29.2 44.81 -29.11 53.64 C-29.12 54.72 -29.13 55.8 -29.14 56.92 C-29.11 64.23 -28.9 71.68 -23.79 77.36 C-22.77 78.02 -22.77 78.02 -21.73 78.7 C-21.05 79.17 -20.37 79.63 -19.67 80.11 C-6.21 87.71 17.98 83.38 33.27 83.2 C34.77 83.19 34.77 83.19 36.3 83.18 C38.69 83.16 41.07 83.1 43.46 83.02 C45.3 82.96 45.3 82.96 47.19 82.91 C51.16 82 52.7 80.31 55.27 77.2 C56.52 74.79 56.52 74.79 57.27 72.2 C57.61 71.42 57.95 70.63 58.3 69.82 C59.73 64.48 59.6 59.27 59.58 53.77 C59.6 52.66 59.61 51.55 59.63 50.41 C59.63 44.22 59.25 39.67 56.27 34.2 C54.95 34.2 53.63 34.2 52.27 34.2 C52.46 33.09 52.46 33.09 52.64 31.95 C52.55 28.91 52.55 28.91 49.52 26.95 C45.09 24.57 41.8 24.08 36.8 24.03 C35.71 24.01 34.61 24 33.48 23.99 C32.3 23.98 31.13 23.97 29.91 23.96 C28.69 23.96 27.47 23.95 26.22 23.94 C23.64 23.93 21.06 23.92 18.48 23.91 C14.55 23.89 10.62 23.85 6.68 23.8 C4.18 23.79 1.67 23.78 -0.84 23.78 C-2.01 23.76 -3.18 23.74 -4.39 23.72 C-12.39 23.75 -18.1 24.67 -24.04 30.45 Z M-50.73 25.2 C-49.73 27.2 -49.73 27.2 -49.73 27.2 Z M-51.73 27.2 C-50.73 29.2 -50.73 29.2 -50.73 29.2 Z M-52.73 30.2 C-51.73 32.2 -51.73 32.2 -51.73 32.2 Z M-53.73 33.2 C-52.73 37.2 -52.73 37.2 -52.73 37.2 Z M-29.73 36.2 C-28.73 38.2 -28.73 38.2 -28.73 38.2 Z M-54.73 37.2 C-54.73 47.43 -54.73 57.66 -54.73 68.2 C-54.4 68.2 -54.07 68.2 -53.73 68.2 C-53.73 57.97 -53.73 47.74 -53.73 37.2 C-54.06 37.2 -54.39 37.2 -54.73 37.2 Z M59.27 37.2 C60.27 39.2 60.27 39.2 60.27 39.2 Z M-30.73 39.2 C-30.73 48.44 -30.73 57.68 -30.73 67.2 C-30.4 67.2 -30.07 67.2 -29.73 67.2 C-29.73 57.96 -29.73 48.72 -29.73 39.2 C-30.06 39.2 -30.39 39.2 -30.73 39.2 Z M60.27 40.2 C60.27 48.78 60.27 57.36 60.27 66.2 C60.6 66.2 60.93 66.2 61.27 66.2 C61.27 57.62 61.27 49.04 61.27 40.2 C60.94 40.2 60.61 40.2 60.27 40.2 Z M-53.73 68.2 C-53.73 69.85 -53.73 71.5 -53.73 73.2 C-53.4 73.2 -53.07 73.2 -52.73 73.2 C-52.73 71.55 -52.73 69.9 -52.73 68.2 C-53.06 68.2 -53.39 68.2 -53.73 68.2 Z M-52.73 74.2 C-51.73 76.2 -51.73 76.2 -51.73 76.2 Z M-15.73 83.2 C-11.73 84.2 -11.73 84.2 -11.73 84.2 Z M-8.73 84.2 C-8.73 84.53 -8.73 84.86 -8.73 85.2 C7.44 85.2 23.61 85.2 40.27 85.2 C40.27 84.87 40.27 84.54 40.27 84.2 C24.1 84.2 7.93 84.2 -8.73 84.2 Z " fill="#000000" transform="translate(690.73046875,316.796875)"/>
<path d="M0 0 C13.41 -0.06 26.81 -0.12 40.62 -0.19 C46.93 -0.23 46.93 -0.23 53.37 -0.27 C58.57 -0.28 58.57 -0.28 61.03 -0.29 C62.71 -0.29 64.39 -0.3 66.07 -0.32 C81.8 -0.45 98.01 -0.06 110.35 11.13 C111.71 12.51 113.05 13.92 114.34 15.36 C116.01 17.25 116.01 17.25 119 18 C119.49 19.49 119.49 19.49 120 21 C120.66 21.33 121.32 21.66 122 22 C122.22 23.14 122.22 23.14 122.44 24.31 C122.8 27.03 122.8 27.03 124.5 28.88 C127.85 33.62 127.16 40.31 127.17 45.95 C127.17 47.04 127.17 47.04 127.18 48.17 C127.18 49.7 127.19 51.24 127.19 52.78 C127.19 55.13 127.21 57.47 127.22 59.82 C127.23 61.32 127.23 62.82 127.23 64.32 C127.24 65.02 127.24 65.71 127.25 66.43 C127.22 72.39 126.15 75.85 122 80 C120.88 82.51 120 85 119.19 87.62 C117.65 90.69 115.95 91.29 113 93 C111.26 94.3 109.53 95.61 107.81 96.94 C98.53 103.75 89.86 106.17 78.45 106.11 C77.58 106.11 76.72 106.11 75.83 106.11 C73.05 106.11 70.26 106.11 67.48 106.1 C65.76 106.1 64.04 106.1 62.31 106.09 C55.94 106.09 49.56 106.08 43.19 106.06 C28.94 106.04 14.68 106.02 0 106 C0 71.02 0 36.04 0 0 Z M25 22 C25 22.33 25 22.66 25 23 C44.8 23 64.6 23 85 23 C85 22.67 85 22.34 85 22 C65.2 22 45.4 22 25 22 Z M23 24 C23 43.47 23 62.94 23 83 C23.33 83 23.66 83 24 83 C24 63.53 24 44.06 24 24 C23.67 24 23.34 24 23 24 Z M25 24 C25 43.47 25 62.94 25 83 C34.36 83.08 43.73 83.16 53.38 83.25 C57.78 83.3 57.78 83.3 62.27 83.36 C64.63 83.37 66.98 83.38 69.34 83.39 C70.54 83.41 71.74 83.43 72.98 83.45 C81.36 83.46 88.78 82.46 95.44 77 C95.95 76.34 96.47 75.68 97 75 C97.54 74.34 98.07 73.68 98.62 73 C103.17 66.38 103.18 60.49 103.19 52.69 C103.2 51.65 103.21 50.62 103.22 49.56 C103.23 44.31 103.13 39.9 101 35 C100.34 35 99.68 35 99 35 C98.02 33.24 97.05 31.48 96.07 29.73 C94.06 26.48 92 25.35 88.35 24.39 C82.95 23.5 77.43 23.76 71.97 23.8 C70.62 23.81 69.26 23.81 67.9 23.81 C64.35 23.82 60.79 23.84 57.24 23.86 C53.61 23.88 49.98 23.89 46.34 23.9 C39.23 23.92 32.11 23.96 25 24 Z M124 31 C125 33 125 33 125 33 Z M125 70 C126 72 126 72 126 72 Z M124 73 C125 75 125 75 125 75 Z M23 84 C23 84.33 23 84.66 23 85 C42.8 85 62.6 85 83 85 C83 84.67 83 84.34 83 84 C63.2 84 43.4 84 23 84 Z " fill="#000000" transform="translate(970,317)"/>
<path d="M0 0 C11.82 -0.07 23.65 -0.12 35.47 -0.16 C40.96 -0.17 46.45 -0.19 51.94 -0.23 C57.24 -0.26 62.55 -0.28 67.85 -0.28 C69.87 -0.29 71.89 -0.3 73.9 -0.32 C76.74 -0.34 79.58 -0.34 82.42 -0.34 C83.24 -0.35 84.07 -0.36 84.92 -0.37 C96.55 -0.31 105.86 3.92 114.25 11.81 C121.86 19.73 123.39 27.67 123.27 38.39 C122.56 47.9 117.95 54.68 111 61 C108.9 62.45 106.82 63.74 104.57 64.93 C102.66 66 102.66 66 102 69 C101.34 69.66 100.68 70.32 100 71 C100.43 71.54 100.87 72.09 101.31 72.64 C101.87 73.36 102.43 74.08 103 74.81 C103.56 75.52 104.11 76.23 104.69 76.96 C106 79 106 79 106 82 C106.9 82.39 106.9 82.39 107.81 82.78 C111.57 84.87 113.66 88.35 116.19 91.75 C116.73 92.45 117.28 93.16 117.84 93.88 C118.36 94.58 118.88 95.27 119.42 95.98 C119.89 96.61 120.36 97.24 120.85 97.88 C122.3 100.54 122.63 103.01 123 106 C97.36 107.92 97.36 107.92 92.27 103.55 C90.16 100.79 88.56 98.1 87 95 C86.34 95 85.68 95 85 95 C84.9 94.42 84.8 93.84 84.69 93.25 C83.88 90.6 82.73 89.14 80.95 87.03 C80.02 85.93 80.02 85.93 79.08 84.8 C78.44 84.04 77.79 83.28 77.12 82.5 C75.86 80.99 74.59 79.48 73.32 77.97 C72.76 77.3 72.19 76.64 71.61 75.95 C70 74 70 74 68.89 71.78 C65.67 68.75 61.75 69.51 57.52 69.61 C56.13 69.62 56.13 69.62 54.71 69.63 C51.74 69.65 48.78 69.7 45.81 69.75 C43.8 69.77 41.79 69.79 39.78 69.8 C34.86 69.85 29.93 69.92 25 70 C25.02 71.02 25.03 72.04 25.05 73.09 C25.1 76.86 25.14 80.64 25.16 84.42 C25.18 86.05 25.2 87.69 25.23 89.32 C25.26 91.67 25.28 94.02 25.29 96.37 C25.31 97.1 25.32 97.83 25.34 98.59 C25.34 100.65 25.34 100.65 25 104 C18.04 108.64 8.36 106 0 106 C0 86.86 0 67.72 0 48 C4 46 4 46 7 46 C7 46.66 7 47.32 7 48 C7.99 47.86 8.98 47.72 10 47.58 C20.55 46.23 31.05 45.78 41.68 45.66 C42.37 45.65 43.07 45.64 43.78 45.63 C49.55 45.57 55.32 45.53 61.1 45.48 C65.44 45.45 69.78 45.41 74.13 45.36 C76.14 45.34 78.15 45.34 80.16 45.33 C81.38 45.31 82.6 45.3 83.86 45.29 C84.93 45.28 86 45.27 87.1 45.27 C90.09 44.99 92.29 44.26 95 43 C95 42.34 95 41.68 95 41 C95.66 41 96.32 41 97 41 C97.05 39.25 97.09 37.5 97.12 35.75 C97.15 34.78 97.17 33.8 97.2 32.8 C97 29.95 96.55 28.37 95 26 C87.59 22.3 77.03 23.88 68.94 23.92 C66.61 23.94 64.27 23.94 61.94 23.95 C56.14 23.96 50.35 23.99 44.55 24.01 C39.64 24.03 34.72 24.05 29.81 24.06 C27.53 24.06 25.25 24.07 22.97 24.09 C21.54 24.09 20.12 24.09 18.7 24.1 C16.86 24.11 16.86 24.11 14.99 24.11 C9.98 23.97 4.99 23.45 0 23 C0 15.41 0 7.82 0 0 Z M99 30 C99 32.64 99 35.28 99 38 C99.33 38 99.66 38 100 38 C100 35.36 100 32.72 100 30 C99.67 30 99.34 30 99 30 Z M28 47 C28 47.33 28 47.66 28 48 C29.98 48 31.96 48 34 48 C34 47.67 34 47.34 34 47 C32.02 47 30.04 47 28 47 Z M45 47 C45 47.33 45 47.66 45 48 C51.27 48 57.54 48 64 48 C64 47.67 64 47.34 64 47 C57.73 47 51.46 47 45 47 Z M73 47 C73 47.33 73 47.66 73 48 C78.94 48 84.88 48 91 48 C91 47.67 91 47.34 91 47 C85.06 47 79.12 47 73 47 Z M94 68 C94.66 68.66 95.32 69.32 96 70 C96 69.34 96 68.68 96 68 C95.34 68 94.68 68 94 68 Z M22 69 C22 73.95 22 78.9 22 84 C22.33 84 22.66 84 23 84 C23 79.05 23 74.1 23 69 C22.67 69 22.34 69 22 69 Z " fill="#000000" transform="translate(810,317)"/>
<path d="M0 0 C-0.29 3.64 -2.04 5.4 -4.57 7.9 C-5.3 8.63 -6.03 9.35 -6.79 10.1 C-7.56 10.85 -8.33 11.6 -9.12 12.38 C-10.25 13.49 -10.25 13.49 -11.39 14.62 C-15.31 18.49 -19.29 22.21 -23.54 25.7 C-25.27 27.17 -25.27 27.17 -27.44 29.94 C-31.52 34.82 -35.66 39.57 -42 41 C-43.61 42.87 -43.61 42.87 -45 45 C-46 46 -47 47 -48 48 C-48.66 48.99 -49.32 49.98 -50 51 C-48.2 55.29 -45.35 57.38 -41.78 60.22 C-39.8 62.2 -39.52 63.32 -39 66 C-37.12 67.68 -35.33 68.84 -33.06 69.94 C-29.12 71.97 -26.15 74.71 -23.38 78.12 C-21.13 81.12 -21.13 81.12 -18 83 C-17.65 84.33 -17.32 85.66 -17 87 C-15.68 88.76 -15.68 88.76 -13.98 90.38 C-13.37 90.99 -12.76 91.6 -12.13 92.23 C-11.49 92.86 -10.85 93.48 -10.19 94.12 C-9.56 94.76 -8.93 95.39 -8.28 96.04 C-5.32 98.97 -2.83 101.27 1 103 C0.01 103.5 0.01 103.5 -1 104 C-1.33 104.66 -1.66 105.32 -2 106 C-6.02 105.98 -10.04 105.93 -14.06 105.85 C-15.43 105.82 -16.79 105.81 -18.16 105.8 C-30.98 105.74 -30.98 105.74 -34.68 102.57 C-35.45 101.72 -36.21 100.88 -37 100 C-37.69 99.66 -38.38 99.31 -39.09 98.96 C-41.75 97.62 -43.53 95.74 -45.62 93.62 C-46.79 92.47 -46.79 92.47 -47.98 91.29 C-49.83 89.19 -50.77 87.47 -52 85 C-53.4 83.39 -54.87 81.83 -56.38 80.31 C-57.15 79.52 -57.92 78.74 -58.71 77.93 C-61 76 -62.16 75.55 -65 75 C-67.25 72.94 -67.25 72.94 -69 71 C-75.41 72.18 -78.94 74.92 -83 80 C-83.32 80.65 -83.63 81.3 -83.96 81.96 C-85.25 84.49 -86.88 86.18 -88.88 88.19 C-89.55 88.88 -90.23 89.58 -90.93 90.29 C-93 92 -93 92 -94.91 92.39 C-98.28 93.37 -100.28 96.01 -102.62 98.5 C-107.5 103.59 -109.56 105.1 -116.76 105.32 C-117.75 105.35 -117.75 105.35 -118.77 105.38 C-120.89 105.44 -123.01 105.5 -125.12 105.56 C-126.56 105.61 -128 105.65 -129.43 105.69 C-132.96 105.8 -136.48 105.9 -140 106 C-140.33 104.68 -140.66 103.36 -141 102 C-140.01 101.5 -140.01 101.5 -139 101 C-138.67 100.01 -138.34 99.02 -138 98 C-136.51 96.43 -136.51 96.43 -134.69 94.88 C-134.09 94.36 -133.5 93.84 -132.89 93.3 C-131 92 -131 92 -129.12 91.63 C-126.4 90.82 -125.15 89.54 -123.14 87.54 C-122.44 86.84 -121.74 86.14 -121.01 85.42 C-120.28 84.68 -119.56 83.95 -118.81 83.19 C-118.08 82.46 -117.34 81.74 -116.58 80.99 C-115.88 80.29 -115.18 79.58 -114.46 78.86 C-113.82 78.21 -113.18 77.57 -112.52 76.91 C-110.9 74.88 -110.52 73.5 -110 71 C-108.29 69.22 -108.29 69.22 -106.19 67.5 C-103.88 65.58 -101.73 63.72 -99.62 61.56 C-98 60 -98 60 -96 60 C-95.75 59.44 -95.51 58.89 -95.25 58.31 C-93.78 55.6 -91.97 53.36 -90 51 C-95.74 42.94 -95.74 42.94 -104 38 C-105.91 36.27 -107.68 34.44 -109.45 32.56 C-110.94 30.9 -110.94 30.9 -113 30 C-113 29.34 -113 28.68 -113 28 C-113.99 27.67 -114.98 27.34 -116 27 C-117.16 25.9 -118.3 24.79 -119.41 23.64 C-121.36 21.62 -123.39 19.69 -125.43 17.75 C-127.05 16.17 -128.68 14.58 -130.31 13 C-131.57 11.81 -131.57 11.81 -132.85 10.59 C-133.64 9.82 -134.42 9.05 -135.24 8.25 C-135.96 7.55 -136.68 6.86 -137.43 6.14 C-139.33 3.56 -139.33 2.13 -139 -1 C-135.02 -1.17 -131.04 -1.3 -127.05 -1.38 C-125.04 -1.44 -123.02 -1.53 -121.01 -1.62 C-110.02 -1.81 -110.02 -1.81 -105.61 1.97 C-104.38 3.29 -103.17 4.63 -102 6 C-100.55 7.46 -99.1 8.92 -97.64 10.37 C-95.42 12.64 -93.21 14.92 -91 17.21 C-89.93 18.31 -89.93 18.31 -88.83 19.43 C-88.19 20.09 -87.55 20.75 -86.89 21.44 C-84.86 23.12 -83.51 23.4 -81 24 C-79.65 25.99 -78.32 27.99 -77 30 C-75.09 32.04 -73.34 33.39 -71 35 C-67.58 34.7 -65.94 33.29 -63.61 30.87 C-62.67 29.91 -62.67 29.91 -61.72 28.93 C-61.07 28.25 -60.42 27.58 -59.75 26.88 C-58.4 25.49 -57.05 24.12 -55.7 22.74 C-55.06 22.08 -54.41 21.43 -53.75 20.75 C-51.2 18.2 -48.51 15.86 -45.76 13.54 C-43.05 11.17 -40.56 8.58 -38.05 5.99 C-37.38 5.33 -36.7 4.68 -36 4 C-35.22 3.11 -34.45 2.23 -33.65 1.32 C-28.71 -2.73 -21.8 -1.87 -15.75 -1.94 C-14.46 -1.98 -13.17 -2.02 -11.84 -2.06 C-2.29 -2.29 -2.29 -2.29 0 0 Z " fill="#000000" transform="translate(1423,318)"/>
<path d="M0 0 C0.33 20.46 0.66 40.92 1 62 C1.33 62 1.66 62 2 62 C2 68.93 2 75.86 2 83 C4.39 82.84 6.78 82.67 9.24 82.5 C24.39 81.63 39.59 81.89 54.75 81.93 C58.85 81.94 62.95 81.95 67.04 81.95 C75.03 81.96 83.01 81.98 91 82 C93.53 89.6 92 97.99 92 106 C54.05 106 16.1 106 -23 106 C-25.12 101.75 -25.23 99.9 -25.16 95.26 C-25.15 93.94 -25.14 92.63 -25.13 91.28 C-25.11 89.89 -25.08 88.51 -25.06 87.12 C-25.03 84.42 -25 81.71 -24.97 79.01 C-24.95 77.81 -24.94 76.61 -24.92 75.37 C-24.91 72.09 -24.91 72.09 -25.49 69.25 C-26.23 64.5 -26.14 59.8 -26.13 55 C-26.13 53.94 -26.13 52.87 -26.14 51.77 C-26.14 49.52 -26.13 47.26 -26.13 45.01 C-26.13 41.61 -26.13 38.2 -26.14 34.8 C-26.15 7.95 -26.15 7.95 -25 1 C-17.54 -2.73 -8.34 0 0 0 Z M0 84 C0 84.33 0 84.66 0 85 C11.22 85 22.44 85 34 85 C34 84.67 34 84.34 34 84 C22.78 84 11.56 84 0 84 Z M46 84 C46 84.33 46 84.66 46 85 C48.64 85 51.28 85 54 85 C54 84.67 54 84.34 54 84 C51.36 84 48.72 84 46 84 Z " fill="#000000" transform="translate(1639,317)"/>
<path d="M0 0 C1.29 0.01 2.58 0.02 3.9 0.03 C4.93 0.04 4.93 0.04 5.98 0.04 C8.17 0.05 10.36 0.08 12.55 0.1 C14.04 0.11 15.52 0.12 17.01 0.13 C20.65 0.15 24.29 0.19 27.93 0.23 C27.93 3.23 27.93 3.23 26.3 4.98 C25.13 6.09 25.13 6.09 23.93 7.23 C23.02 8.3 22.13 9.39 21.24 10.48 C17.07 15.4 12.14 21.16 5.93 23.23 C4.34 24.92 2.95 26.71 1.52 28.54 C-0.21 30.38 -1.81 31.13 -4.07 32.23 C-4.73 33.07 -5.39 33.92 -6.07 34.79 C-8.07 37.23 -8.07 37.23 -9.81 37.56 C-13.31 38.6 -15.67 41.01 -18.32 43.41 C-18.88 43.88 -19.43 44.35 -20 44.84 C-22.85 47.41 -24.02 48.72 -24.43 52.59 C-24.31 53.46 -24.19 54.33 -24.07 55.23 C-23.5 55.47 -22.93 55.72 -22.33 55.98 C-19.73 57.42 -17.97 59.1 -15.89 61.23 C-15.19 61.93 -14.5 62.63 -13.78 63.35 C-12.07 65.23 -12.07 65.23 -11.07 67.23 C-9.74 67.9 -8.41 68.57 -7.07 69.23 C-5.37 70.63 -5.37 70.63 -3.69 72.23 C-3.08 72.81 -2.47 73.38 -1.84 73.98 C-1.22 74.57 -0.59 75.17 0.05 75.79 C1.3 76.98 2.56 78.17 3.81 79.36 C4.36 79.88 4.91 80.41 5.48 80.95 C6.92 82.33 6.92 82.33 8.93 83.23 C9.26 84.22 9.59 85.21 9.93 86.23 C10.5 86.5 11.08 86.76 11.68 87.04 C14.89 88.73 16.72 91.43 18.93 94.23 C19.96 95.48 21 96.73 22.05 97.98 C22.53 98.55 23.01 99.12 23.5 99.71 C25.05 101.47 25.05 101.47 27.93 103.23 C27.93 104.22 27.93 105.21 27.93 106.23 C0.43 108.66 0.43 108.66 -7.05 103.43 C-10.28 100.59 -13.01 97.38 -15.65 94 C-17.69 91.47 -20.05 89.41 -22.51 87.29 C-23.68 86.24 -23.68 86.24 -24.88 85.17 C-27.59 82.77 -30.31 80.38 -33.05 78 C-36.74 74.77 -40.41 71.49 -44.07 68.23 C-45.56 68.72 -45.56 68.72 -47.07 69.23 C-47.44 68.55 -47.82 67.87 -48.2 67.16 C-51 62.77 -54.39 58.91 -58.07 55.23 C-58.7 52.04 -58.7 52.04 -58.07 48.23 C-56.14 46.12 -54.1 44.44 -51.82 42.71 C-50.96 41.97 -50.96 41.97 -50.07 41.23 C-50.07 40.57 -50.07 39.91 -50.07 39.23 C-48.41 38.23 -46.74 37.23 -45.07 36.23 C-43.77 34.93 -43.77 34.93 -42.45 33.6 C-40.07 31.23 -40.07 31.23 -37.07 30.23 C-36.74 29.57 -36.41 28.91 -36.07 28.23 C-35.41 27.57 -34.75 26.91 -34.07 26.23 C-33.45 25.57 -32.84 24.91 -32.2 24.23 C-30.07 22.23 -30.07 22.23 -28.23 21.36 C-25.57 19.97 -23.7 18.21 -21.51 16.16 C-16.92 11.95 -12.18 7.98 -7.32 4.07 C-2.59 0.19 -2.59 0.19 0 0 Z M-28.07 51.23 C-27.07 53.23 -27.07 53.23 -27.07 53.23 Z " fill="#000000" transform="translate(585.07275390625,316.77294921875)"/>
<path d="M0 0 C28.71 0 57.42 0 87 0 C87 7.59 87 15.18 87 23 C65.88 23 44.76 23 23 23 C23 35.87 23 48.74 23 62 C14.75 62 6.5 62 -2 62 C-3.05 58.84 -3.09 56.74 -3.02 53.43 C-3 52.29 -2.98 51.15 -2.96 49.97 C-2.93 48.74 -2.91 47.51 -2.88 46.24 C-2.86 44.98 -2.83 43.72 -2.81 42.42 C-2.74 39.07 -2.68 35.72 -2.61 32.37 C-2.53 28.95 -2.47 25.53 -2.4 22.12 C-2.28 15.41 -2.14 8.7 -2 2 C-1.34 1.67 -0.68 1.34 0 1 C0 0.67 0 0.34 0 0 Z " fill="#000000" transform="translate(1461,361)"/>
<path d="M0 0 C1.01 -0 2.02 -0 3.07 -0 C4.18 -0 5.3 0 6.45 0.01 C8.2 0.01 8.2 0.01 9.99 0.01 C13.21 0.01 16.42 0.01 19.64 0.02 C23 0.03 26.35 0.03 29.71 0.03 C36.07 0.03 42.43 0.04 48.79 0.05 C56.03 0.06 63.27 0.06 70.52 0.07 C85.41 0.08 100.31 0.1 115.2 0.12 C115.2 8.04 115.2 15.96 115.2 24.12 C99.59 24.17 83.98 24.2 68.37 24.22 C61.12 24.23 53.87 24.25 46.62 24.27 C40.31 24.29 33.99 24.3 27.68 24.31 C24.33 24.31 20.98 24.32 17.64 24.33 C13.91 24.35 10.18 24.35 6.45 24.35 C5.33 24.35 4.22 24.36 3.07 24.37 C1.55 24.36 1.55 24.36 0 24.36 C-0.88 24.36 -1.77 24.36 -2.68 24.37 C-4.8 24.12 -4.8 24.12 -6.8 22.12 C-7.13 19.49 -7.35 16.95 -7.48 14.31 C-7.53 13.6 -7.58 12.88 -7.63 12.15 C-7.84 8.33 -7.95 4.8 -6.8 1.12 C-4.34 -0.11 -2.75 -0 0 0 Z " fill="#000000" transform="translate(1465.7961730957031,316.87974548339844)"/>
<path d="M0 0 C14.83 -0.05 29.66 -0.08 44.49 -0.1 C51.37 -0.11 58.26 -0.13 65.14 -0.15 C71.78 -0.17 78.42 -0.18 85.06 -0.19 C87.6 -0.19 90.14 -0.2 92.68 -0.21 C96.22 -0.23 99.76 -0.23 103.31 -0.23 C104.37 -0.23 105.43 -0.24 106.52 -0.25 C107.48 -0.25 108.44 -0.24 109.43 -0.24 C110.27 -0.24 111.11 -0.24 111.97 -0.25 C114 0 114 0 116 2 C116.45 5.13 116.32 8.28 116.31 11.44 C116.33 12.31 116.34 13.18 116.36 14.08 C116.36 14.92 116.36 15.76 116.36 16.62 C116.37 17.39 116.37 18.16 116.37 18.95 C115.87 21.73 115.34 22.37 113 24 C110.11 24.29 107.44 24.39 104.55 24.36 C103.68 24.36 102.82 24.36 101.93 24.36 C99.06 24.37 96.19 24.35 93.32 24.33 C91.31 24.33 89.3 24.32 87.3 24.32 C83.07 24.32 78.85 24.3 74.62 24.28 C69.27 24.25 63.91 24.24 58.56 24.24 C53.39 24.23 48.23 24.22 43.07 24.2 C42.11 24.2 41.15 24.2 40.17 24.2 C26.75 24.16 13.4 23.72 0 23 C0 15.41 0 7.82 0 0 Z M113 4 C113 9.28 113 14.56 113 20 C113.33 20 113.66 20 114 20 C114 14.72 114 9.44 114 4 C113.67 4 113.34 4 113 4 Z " fill="#000000" transform="translate(1135,317)"/>
<path d="M0 0 C7.59 0 15.18 0 23 0 C23 34.65 23 69.3 23 105 C5 106 5 106 0 105 C0 70.35 0 35.7 0 0 Z " fill="#000000" transform="translate(486,317)"/>
<path d="M0 0 C37.29 0 74.58 0 113 0 C113 6.93 113 13.86 113 21 C75.71 21 38.42 21 0 21 C0 14.07 0 7.14 0 0 Z " fill="#000000" transform="translate(1135,402)"/>
<path d="M0 0 C26.4 0 52.8 0 80 0 C80 7.59 80 15.18 80 23 C53.6 23 27.2 23 0 23 C0 15.41 0 7.82 0 0 Z M5 1 C5 1.33 5 1.66 5 2 C13.58 2 22.16 2 31 2 C31 1.67 31 1.34 31 1 C22.42 1 13.84 1 5 1 Z M57 1 C57 1.33 57 1.66 57 2 C59.64 2 62.28 2 65 2 C65 1.67 65 1.34 65 1 C62.36 1 59.72 1 57 1 Z " fill="#000000" transform="translate(1135,358)"/>
<path d="M0 0 C0.33 0 0.66 0 1 0 C1 34.32 1 68.64 1 104 C0.34 103.67 -0.32 103.34 -1 103 C-1.02 91.19 -1.04 79.39 -1.05 67.58 C-1.06 62.1 -1.06 56.62 -1.08 51.14 C-1.09 45.84 -1.09 40.54 -1.09 35.24 C-1.1 33.23 -1.1 31.22 -1.11 29.2 C-1.16 8.93 -1.16 8.93 0 0 Z " fill="#000000" transform="translate(968,318)"/>
<path d="M0 0 C0.33 0 0.66 0 1 0 C1.96 15.82 2.16 31.59 2.13 47.44 C2.13 51.43 2.13 55.42 2.14 59.41 C2.14 74.3 1.85 89.13 1 104 C0.67 104 0.34 104 0 104 C0 69.68 0 35.36 0 0 Z " fill="#000000" transform="translate(510,318)"/>
<path d="M0 0 C39.6 0 79.2 0 120 0 C120 0.33 120 0.66 120 1 C80.4 1 40.8 1 0 1 C0 0.67 0 0.34 0 0 Z " fill="#000000" transform="translate(1461,315)"/>
<path d="M0 0 C37.62 0 75.24 0 114 0 C114 0.33 114 0.66 114 1 C76.38 1 38.76 1 0 1 C0 0.67 0 0.34 0 0 Z " fill="#000000" transform="translate(1616,424)"/>
<path d="M0 0 C37.29 0 74.58 0 113 0 C113 0.33 113 0.66 113 1 C75.71 1 38.42 1 0 1 C0 0.67 0 0.34 0 0 Z " fill="#000000" transform="translate(1135,424)"/>
<path d="M0 0 C36.96 0 73.92 0 112 0 C112 0.33 112 0.66 112 1 C75.04 1 38.08 1 0 1 C0 0.67 0 0.34 0 0 Z " fill="#000000" transform="translate(1136,400)"/>
<path d="M0 0 C36.96 0 73.92 0 112 0 C112 0.33 112 0.66 112 1 C75.04 1 38.08 1 0 1 C0 0.67 0 0.34 0 0 Z " fill="#000000" transform="translate(1136,315)"/>
<path d="M0 0 C0.33 0 0.66 0 1 0 C1 34.32 1 68.64 1 104 C0.67 104 0.34 104 0 104 C0 69.68 0 35.36 0 0 Z " fill="#000000" transform="translate(484,318)"/>
<path d="M0 0 C-3.86 1.29 -7.49 1.13 -11.51 1.11 C-12.38 1.11 -13.25 1.11 -14.14 1.11 C-17.02 1.11 -19.89 1.11 -22.76 1.1 C-24.75 1.1 -26.74 1.09 -28.74 1.09 C-33.98 1.09 -39.22 1.08 -44.46 1.07 C-49.81 1.06 -55.16 1.05 -60.51 1.05 C-71.01 1.04 -81.5 1.02 -92 1 C-92 0.67 -92 0.34 -92 0 C-80.6 -0.15 -69.19 -0.3 -57.79 -0.44 C-52.49 -0.51 -47.19 -0.58 -41.9 -0.65 C-36.79 -0.72 -31.68 -0.78 -26.57 -0.84 C-24.62 -0.87 -22.67 -0.89 -20.72 -0.92 C-17.99 -0.96 -15.26 -0.99 -12.53 -1.02 C-11.72 -1.03 -10.92 -1.05 -10.08 -1.06 C-6.54 -1.09 -3.41 -0.96 0 0 Z " fill="#000000" transform="translate(1062,424)"/>
<path d="M0 0 C10.98 -0.02 21.96 -0.04 32.94 -0.05 C38.04 -0.06 43.13 -0.06 48.23 -0.08 C53.15 -0.09 58.07 -0.09 63 -0.09 C64.87 -0.1 66.75 -0.1 68.62 -0.11 C71.25 -0.11 73.89 -0.11 76.52 -0.11 C77.29 -0.12 78.06 -0.12 78.86 -0.12 C83.01 -0.12 86.93 0.19 91 1 C91 1.33 91 1.66 91 2 C60.97 1.67 30.94 1.34 0 1 C0 0.67 0 0.34 0 0 Z " fill="#000000" transform="translate(970,315)"/>
<path d="M0 0 C30.36 0 60.72 0 92 0 C92 0.33 92 0.66 92 1 C61.64 1 31.28 1 0 1 C0 0.67 0 0.34 0 0 Z " fill="#000000" transform="translate(811,315)"/>
<path d="M0 0 C-8.14 3.42 -15.86 3.39 -24.54 3.29 C-26.02 3.29 -27.51 3.28 -29 3.28 C-32.89 3.27 -36.79 3.24 -40.68 3.21 C-44.66 3.18 -48.64 3.16 -52.62 3.15 C-60.42 3.11 -68.21 3.06 -76 3 C-76 2.67 -76 2.34 -76 2 C-75.19 1.99 -74.38 1.98 -73.54 1.98 C-65.88 1.9 -58.21 1.81 -50.55 1.71 C-46.61 1.66 -42.67 1.62 -38.73 1.58 C-34.92 1.54 -31.11 1.49 -27.31 1.44 C-25.86 1.42 -24.41 1.41 -22.96 1.4 C-20.93 1.38 -18.89 1.35 -16.85 1.32 C-15.12 1.3 -15.12 1.3 -13.35 1.28 C-9.89 1.1 -9.89 1.1 -6.26 -0.08 C-3 -1 -3 -1 0 0 Z " fill="#000000" transform="translate(1869,422)"/>
<path d="M0 0 C3.41 0.07 6.82 0.13 10.23 0.18 C12.41 0.22 14.58 0.26 16.76 0.31 C17.78 0.32 18.79 0.34 19.83 0.35 C21.24 0.39 21.24 0.39 22.68 0.42 C23.5 0.44 24.33 0.46 25.17 0.47 C27.42 0.76 27.42 0.76 31.42 2.76 C7.33 2.43 -16.76 2.1 -41.58 1.76 C-41.58 1.43 -41.58 1.1 -41.58 0.76 C-27.69 -0.23 -13.91 -0.3 0 0 Z " fill="#000000" transform="translate(1833.575927734375,315.241943359375)"/>
<path d="M0 0 C23.76 0 47.52 0 72 0 C67.91 2.04 66.27 2.25 61.84 2.24 C60.6 2.25 59.35 2.25 58.07 2.25 C56.71 2.25 55.36 2.24 54 2.23 C52.61 2.23 51.21 2.23 49.82 2.23 C46.9 2.23 43.98 2.22 41.06 2.21 C37.32 2.19 33.58 2.18 29.85 2.19 C26.97 2.19 24.09 2.18 21.21 2.17 C19.83 2.17 18.45 2.17 17.07 2.17 C15.14 2.16 13.22 2.16 11.29 2.15 C10.19 2.14 9.1 2.14 7.97 2.13 C5.2 2.01 2.69 1.63 0 1 C0 0.67 0 0.34 0 0 Z " fill="#000000" transform="translate(670,423)"/>
<path d="M0 0 C0.33 0 0.66 0 1 0 C1 18.81 1 37.62 1 57 C0.34 56.67 -0.32 56.34 -1 56 C-0.67 39.17 -0.34 22.34 0 5 C-0.66 4.67 -1.32 4.34 -2 4 C-1.34 4 -0.68 4 0 4 C-0.33 3.01 -0.66 2.02 -1 1 C-0.67 0.67 -0.34 0.34 0 0 Z " fill="#000000" transform="translate(808,365)"/>
<path d="M0 0 C8.58 0 17.16 0 26 0 C26 0.33 26 0.66 26 1 C17.75 1 9.5 1 1 1 C1 12.88 1 24.76 1 37 C0.67 37 0.34 37 0 37 C0 24.79 0 12.58 0 0 Z " fill="#000000" transform="translate(1485,385)"/>
<path d="M0 0 C19.8 0 39.6 0 60 0 C60 0.33 60 0.66 60 1 C40.2 1 20.4 1 0 1 C0 0.67 0 0.34 0 0 Z " fill="#000000" transform="translate(676,315)"/>
<path d="M0 0 C2.47 1.15 4.05 2.05 6 4 C9.01 4.37 9.01 4.37 12.54 4.41 C13.84 4.45 15.14 4.49 16.48 4.53 C17.86 4.56 19.24 4.59 20.62 4.62 C22.01 4.66 23.4 4.7 24.79 4.74 C28.19 4.84 31.6 4.92 35 5 C35 5.33 35 5.66 35 6 C30.82 6.15 26.64 6.26 22.46 6.33 C21.04 6.36 19.62 6.4 18.19 6.45 C6.33 6.88 6.33 6.88 2.93 4.64 C1.54 2.98 1.54 2.98 0 0 Z " fill="#000000" transform="translate(577,419)"/>
<path d="M0 0 C0.99 0.5 0.99 0.5 2 1 C2 6.94 2 12.88 2 19 C1.34 19.33 0.68 19.66 0 20 C0 13.4 0 6.8 0 0 Z " fill="#000000" transform="translate(1549,363)"/>
<path d="M0 0 C10.23 0 20.46 0 31 0 C31 0.33 31 0.66 31 1 C20.77 1 10.54 1 0 1 C0 0.67 0 0.34 0 0 Z " fill="#000000" transform="translate(582,315)"/>
<path d="M0 0 C9.9 0 19.8 0 30 0 C30 0.33 30 0.66 30 1 C20.1 1 10.2 1 0 1 C0 0.67 0 0.34 0 0 Z " fill="#000000" transform="translate(1284,424)"/>
<path d="M0 0 C0.33 0 0.66 0 1 0 C1 9.9 1 19.8 1 30 C0.67 30 0.34 30 0 30 C0 20.1 0 10.2 0 0 Z " fill="#000000" transform="translate(776,355)"/>
<path d="M0 0 C9.9 0 19.8 0 30 0 C30 0.33 30 0.66 30 1 C20.1 1 10.2 1 0 1 C0 0.67 0 0.34 0 0 Z " fill="#000000" transform="translate(1284,315)"/>
<path d="M0 0 C9.57 0 19.14 0 29 0 C29 0.33 29 0.66 29 1 C19.43 1 9.86 1 0 1 C0 0.67 0 0.34 0 0 Z " fill="#000000" transform="translate(1392,424)"/>
<path d="M0 0 C0.33 0.66 0.66 1.32 1 2 C-7.91 2 -16.82 2 -26 2 C-26 1.67 -26 1.34 -26 1 C-17.42 0.67 -8.84 0.34 0 0 Z " fill="#000000" transform="translate(2057,423)"/>
<path d="M0 0 C13.37 0.5 13.37 0.5 27 1 C27 1.33 27 1.66 27 2 C18.09 2 9.18 2 0 2 C0 1.34 0 0.68 0 0 Z " fill="#000000" transform="translate(1960,423)"/>
<path d="M0 0 C13.37 0.5 13.37 0.5 27 1 C27 1.33 27 1.66 27 2 C18.09 2 9.18 2 0 2 C0 1.34 0 0.68 0 0 Z " fill="#000000" transform="translate(905,423)"/>
<path d="M0 0 C0.33 0.66 0.66 1.32 1 2 C-6.26 2 -13.52 2 -21 2 C-21 1.67 -21 1.34 -21 1 C-18.63 0.83 -16.25 0.66 -13.88 0.5 C-13.21 0.45 -12.54 0.4 -11.86 0.36 C-7.9 0.08 -3.97 -0.05 0 0 Z " fill="#000000" transform="translate(508,423)"/>
<path d="M0 0 C9.24 0 18.48 0 28 0 C28 0.33 28 0.66 28 1 C18.76 1 9.52 1 0 1 C0 0.67 0 0.34 0 0 Z " fill="#000000" transform="translate(1393,315)"/>
<path d="M0 0 C3.9 1.59 6.34 4.13 9.25 7.12 C10.14 8.04 11.03 8.95 11.95 9.88 C12.63 10.58 13.3 11.28 14 12 C11 12 11 12 8.3 9.63 C7.3 8.61 6.3 7.59 5.31 6.56 C4.8 6.05 4.29 5.53 3.76 5 C0 1.15 0 1.15 0 0 Z " fill="#000000" transform="translate(362,474)"/>
<path d="M0 0 C6.27 0 12.54 0 19 0 C19.66 1.32 20.32 2.64 21 4 C20.01 3.34 19.02 2.68 18 2 C15.97 1.64 15.97 1.64 13.77 1.59 C12.97 1.55 12.16 1.51 11.34 1.47 C10.09 1.42 10.09 1.42 8.81 1.38 C7.97 1.34 7.12 1.3 6.25 1.26 C4.17 1.16 2.08 1.08 0 1 C0 0.67 0 0.34 0 0 Z " fill="#000000" transform="translate(858,387)"/>
<path d="M0 0 C0.33 0 0.66 0 1 0 C1 7.92 1 15.84 1 24 C0.67 24 0.34 24 0 24 C0 16.08 0 8.16 0 0 Z " fill="#000000" transform="translate(1097,360)"/>
<path d="M0 0 C7.92 0 15.84 0 24 0 C24 0.33 24 0.66 24 1 C16.08 1 8.16 1 0 1 C0 0.67 0 0.34 0 0 Z " fill="#000000" transform="translate(2078,316)"/>
<path d="M0 0 C7.92 0 15.84 0 24 0 C24 0.33 24 0.66 24 1 C16.08 1 8.16 1 0 1 C0 0.67 0 0.34 0 0 Z " fill="#000000" transform="translate(1917,316)"/>
<path d="M0 0 C7.26 0 14.52 0 22 0 C22 0.33 22 0.66 22 1 C14.74 1 7.48 1 0 1 C0 0.67 0 0.34 0 0 Z " fill="#000000" transform="translate(1461,424)"/>
<path d="M0 0 C7.26 0 14.52 0 22 0 C22 0.33 22 0.66 22 1 C14.74 1 7.48 1 0 1 C0 0.67 0 0.34 0 0 Z " fill="#000000" transform="translate(810,424)"/>
<path d="M0 0 C7.26 0 14.52 0 22 0 C22 0.33 22 0.66 22 1 C14.74 1 7.48 1 0 1 C0 0.67 0 0.34 0 0 Z " fill="#000000" transform="translate(1616,315)"/>
<path d="M0 0 C7.26 0 14.52 0 22 0 C22 0.33 22 0.66 22 1 C14.74 1 7.48 1 0 1 C0 0.67 0 0.34 0 0 Z " fill="#000000" transform="translate(487,315)"/>
<path d="M0 0 C0.33 0 0.66 0 1 0 C1 6.93 1 13.86 1 21 C0.67 21 0.34 21 0 21 C0 14.07 0 7.14 0 0 Z " fill="#000000" transform="translate(1582,318)"/>
<path d="M0 0 C0.33 0 0.66 0 1 0 C1 6.93 1 13.86 1 21 C0.67 21 0.34 21 0 21 C0 14.07 0 7.14 0 0 Z " fill="#000000" transform="translate(808,317)"/>
<path d="M0 0 C0.66 0.33 1.32 0.66 2 1 C-1.3 4.3 -4.6 7.6 -8 11 C-8 8 -8 8 -6.25 5.96 C-5.51 5.25 -4.76 4.54 -4 3.81 C-2.89 2.74 -2.89 2.74 -1.75 1.64 C-1.17 1.1 -0.59 0.56 0 0 Z " fill="#000000" transform="translate(232,268)"/>
<path d="M0 0 C0.33 0 0.66 0 1 0 C1 6.6 1 13.2 1 20 C0.67 20 0.34 20 0 20 C0 13.4 0 6.8 0 0 Z " fill="#000000" transform="translate(1732,402)"/>
<path d="M0 0 C0.33 0 0.66 0 1 0 C1 6.6 1 13.2 1 20 C0.67 20 0.34 20 0 20 C0 13.4 0 6.8 0 0 Z " fill="#000000" transform="translate(1249,402)"/>
<path d="M0 0 C0.33 0 0.66 0 1 0 C1 6.6 1 13.2 1 20 C0.67 20 0.34 20 0 20 C0 13.4 0 6.8 0 0 Z " fill="#000000" transform="translate(1133,402)"/>
<path d="M0 0 C0.33 0 0.66 0 1 0 C1 6.6 1 13.2 1 20 C0.67 20 0.34 20 0 20 C0 13.4 0 6.8 0 0 Z " fill="#000000" transform="translate(1216,360)"/>
<path d="M0 0 C0.33 0 0.66 0 1 0 C1 6.6 1 13.2 1 20 C0.67 20 0.34 20 0 20 C0 13.4 0 6.8 0 0 Z " fill="#000000" transform="translate(1133,360)"/>
<path d="M0 0 C0.33 0 0.66 0 1 0 C1 6.6 1 13.2 1 20 C0.67 20 0.34 20 0 20 C0 13.4 0 6.8 0 0 Z " fill="#000000" transform="translate(1640,321)"/>
<path d="M0 0 C0.33 0 0.66 0 1 0 C1 6.6 1 13.2 1 20 C0.67 20 0.34 20 0 20 C0 13.4 0 6.8 0 0 Z " fill="#000000" transform="translate(1133,318)"/>
<path d="M0 0 C0.66 0.33 1.32 0.66 2 1 C-0.97 3.97 -3.94 6.94 -7 10 C-7.66 9.67 -8.32 9.34 -9 9 C-6.03 6.03 -3.06 3.06 0 0 Z " fill="#000000" transform="translate(349,250)"/>
<path d="M0 0 C2.53 3.13 4.42 6.3 6 10 C5.67 10.99 5.34 11.98 5 13 C4.16 11.4 3.33 9.79 2.5 8.19 C1.8 6.85 1.8 6.85 1.09 5.48 C0 3 0 3 0 0 Z " fill="#000000" transform="translate(1933,363)"/>
<path d="M0 0 C0.66 0.33 1.32 0.66 2 1 C-0.64 3.64 -3.28 6.28 -6 9 C-6.66 8.67 -7.32 8.34 -8 8 C-5.36 5.36 -2.72 2.72 0 0 Z " fill="#000000" transform="translate(220,280)"/>
<path d="M0 0 C0.33 0 0.66 0 1 0 C1 5.61 1 11.22 1 17 C0.67 17 0.34 17 0 17 C0 11.39 0 5.78 0 0 Z " fill="#000000" transform="translate(1071,363)"/>
<path d="M0 0 C3.82 1.56 6.19 4.04 9 7 C8.67 7.66 8.34 8.32 8 9 C6.66 7.69 5.33 6.38 4 5.06 C2.89 3.97 2.89 3.97 1.75 2.85 C0 1 0 1 0 0 Z " fill="#000000" transform="translate(1327,329)"/>
<path d="M0 0 C4.27 1.58 6.27 4.51 9 8 C4.73 6.42 2.73 3.49 0 0 Z " fill="#000000" transform="translate(604,411)"/>
<path d="M0 0 C0 4.39 -2.13 5.77 -5 9 C-5.66 8.34 -6.32 7.68 -7 7 C-4.69 4.69 -2.38 2.38 0 0 Z " fill="#000000" transform="translate(1885,408)"/>
<path d="M0 0 C4.27 1.58 6.27 4.51 9 8 C4.73 6.42 2.73 3.49 0 0 Z " fill="#000000" transform="translate(564,407)"/>
<path d="M0 0 C0.66 0.33 1.32 0.66 2 1 C-0.31 3.31 -2.62 5.62 -5 8 C-5 5 -5 5 -2.5 2.31 C-1.67 1.55 -0.85 0.79 0 0 Z " fill="#000000" transform="translate(652,325)"/>
<path d="M0 0 C0.66 0.33 1.32 0.66 2 1 C-0.31 3.31 -2.62 5.62 -5 8 C-5 5 -5 5 -2.5 2.31 C-1.68 1.55 -0.85 0.79 0 0 Z " fill="#000000" transform="translate(384,217)"/>
<path d="M0 0 C0.33 0 0.66 0 1 0 C1 4.62 1 9.24 1 14 C0.67 14 0.34 14 0 14 C0 9.38 0 4.76 0 0 Z " fill="#000000" transform="translate(1640,345)"/>
<path d="M0 0 C0 3 0 3 -2 5.19 C-2.66 5.79 -3.32 6.38 -4 7 C-4.66 6.67 -5.32 6.34 -6 6 C-4.02 4.02 -2.04 2.04 0 0 Z " fill="#000000" transform="translate(268,328)"/>
<path d="M0 0 C1.98 1.65 3.96 3.3 6 5 C3 5 3 5 1.31 3.62 C0 2 0 2 0 0 Z " fill="#000000" transform="translate(1322,357)"/>
<path d="M0 0 C0 3 0 3 -1.5 4.69 C-2 5.12 -2.49 5.55 -3 6 C-3.66 5.67 -4.32 5.34 -5 5 C-3.35 3.35 -1.7 1.7 0 0 Z " fill="#000000" transform="translate(316,282)"/>
<path d="M0 0 C0.66 0.33 1.32 0.66 2 1 C0.68 2.32 -0.64 3.64 -2 5 C-2.66 4.67 -3.32 4.34 -4 4 C-2.68 2.68 -1.36 1.36 0 0 Z " fill="#000000" transform="translate(573,322)"/>
<path d="M0 0 C0.66 0.33 1.32 0.66 2 1 C0.35 2.32 -1.3 3.64 -3 5 C-1.12 1.12 -1.12 1.12 0 0 Z " fill="#000000" transform="translate(1297,405)"/>
<path d="M0 0 C0.33 0 0.66 0 1 0 C0.67 2.64 0.34 5.28 0 8 C-0.98 4.95 -0.98 3.05 0 0 Z " fill="#000000" transform="translate(775,385)"/>
<path d="M0 0 C0.33 0 0.66 0 1 0 C1 2.97 1 5.94 1 9 C0.67 9 0.34 9 0 9 C0 6.03 0 3.06 0 0 Z " fill="#000000" transform="translate(1640,360)"/>
<path d="M0 0 C1.32 1.32 2.64 2.64 4 4 C2.68 4 1.36 4 0 4 C0 2.68 0 1.36 0 0 Z " fill="#000000" transform="translate(148,360)"/>
<path d="M0 0 C0.33 0 0.66 0 1 0 C1 2.64 1 5.28 1 8 C-0.43 5.65 -1.09 4.52 -0.62 1.75 C-0.42 1.17 -0.21 0.6 0 0 Z " fill="#000000" transform="translate(147,352)"/>
<path d="M0 0 C1.56 1.81 1.56 1.81 3 4 C2.67 4.99 2.34 5.98 2 7 C0.54 4.35 0 3.11 0 0 Z " fill="#000000" transform="translate(1928,351)"/>
<path d="M0 0 C2.15 3.23 2.2 4.28 2 8 C0.24 4.91 0 3.77 0 0 Z " fill="#000000" transform="translate(774,347)"/>
<path d="M0 0 C1.56 1.81 1.56 1.81 3 4 C2.67 4.99 2.34 5.98 2 7 C0.54 4.35 0 3.11 0 0 Z " fill="#000000" transform="translate(1925,344)"/>
<path d="M0 0 C0.66 0.33 1.32 0.66 2 1 C1.01 1.66 0.02 2.32 -1 3 C-1.99 2.67 -2.98 2.34 -4 2 C-2.12 0.94 -2.12 0.94 0 0 Z " fill="#000000" transform="translate(1072,418)"/>
<path d="M0 0 C1.32 0.99 2.64 1.98 4 3 C3.67 3.66 3.34 4.32 3 5 C1.5 3.62 1.5 3.62 0 2 C0 1.34 0 0.68 0 0 Z " fill="#000000" transform="translate(645,406)"/>
<path d="M0 0 C3.88 1.75 3.88 1.75 5 4 C1.12 2.25 1.12 2.25 0 0 Z " fill="#000000" transform="translate(556,400)"/>
<path d="M0 0 C0.66 0.66 1.32 1.32 2 2 C0.68 2.99 -0.64 3.98 -2 5 C-1.34 3.35 -0.68 1.7 0 0 Z " fill="#000000" transform="translate(240,259)"/>
<path d="M0 0 C0.66 0.33 1.32 0.66 2 1 C1.01 1.99 0.02 2.98 -1 4 C-1.66 3.67 -2.32 3.34 -3 3 C-2.01 2.01 -1.02 1.02 0 0 Z " fill="#000000" transform="translate(364,236)"/>
<path d="M0 0 C1.98 0.99 1.98 0.99 4 2 C3.67 2.66 3.34 3.32 3 4 C2.01 2.68 1.02 1.36 0 0 Z " fill="#000000" transform="translate(358,470)"/>
<path d="M0 0 C1.98 0.99 1.98 0.99 4 2 C3.67 2.66 3.34 3.32 3 4 C2.01 2.68 1.02 1.36 0 0 Z " fill="#000000" transform="translate(202,414)"/>
<path d="M0 0 C0.66 0.33 1.32 0.66 2 1 C0.68 1.99 -0.64 2.98 -2 4 C-1.34 2.68 -0.68 1.36 0 0 Z " fill="#000000" transform="translate(1303,399)"/>
<path d="M0 0 C1.98 0.99 1.98 0.99 4 2 C3.67 2.66 3.34 3.32 3 4 C2.01 2.68 1.02 1.36 0 0 Z " fill="#000000" transform="translate(1383,382)"/>
<path d="M0 0 C0.66 0.33 1.32 0.66 2 1 C0.68 1.99 -0.64 2.98 -2 4 C-1.34 2.68 -0.68 1.36 0 0 Z " fill="#000000" transform="translate(1374,332)"/>
<path d="M0 0 C2.47 0.5 2.47 0.5 5 1 C4.01 1.33 3.02 1.66 2 2 C1.34 1.34 0.68 0.68 0 0 Z " fill="#000000" transform="translate(1781,420)"/>
<path d="M0 0 C0.99 0.33 1.98 0.66 3 1 C1.35 1.33 -0.3 1.66 -2 2 C-1.34 1.34 -0.68 0.68 0 0 Z " fill="#000000" transform="translate(747,420)"/>
<path d="M0 0 C1.98 0.99 1.98 0.99 4 2 C3.01 2 2.02 2 1 2 C0.67 1.34 0.34 0.68 0 0 Z " fill="#000000" transform="translate(649,411)"/>
<path d="M0 0 C0.33 0.99 0.66 1.98 1 3 C0.34 3.66 -0.32 4.32 -1 5 C-0.67 3.35 -0.34 1.7 0 0 Z " fill="#000000" transform="translate(773,393)"/>
<path d="M0 0 C0.66 0.33 1.32 0.66 2 1 C0.02 1.99 0.02 1.99 -2 3 C-1.34 2.01 -0.68 1.02 0 0 Z " fill="#000000" transform="translate(743,394)"/>
<path d="M0 0 C0.66 0.66 1.32 1.32 2 2 C1.67 2.99 1.34 3.98 1 5 C0.67 3.35 0.34 1.7 0 0 Z " fill="#000000" transform="translate(2034,371)"/>
<path d="M0 0 C0.66 0.66 1.32 1.32 2 2 C1.67 2.99 1.34 3.98 1 5 C0.67 3.35 0.34 1.7 0 0 Z " fill="#000000" transform="translate(1931,358)"/>
<path d="M0 0 C0.66 0.33 1.32 0.66 2 1 C0.02 1.99 0.02 1.99 -2 3 C-1.34 2.01 -0.68 1.02 0 0 Z " fill="#000000" transform="translate(611,321)"/>
<path d="M0 0 C0.33 0 0.66 0 1 0 C1 1.98 1 3.96 1 6 C0.67 6 0.34 6 0 6 C0 4.02 0 2.04 0 0 Z " fill="#000000" transform="translate(393,203)"/>
<path d="M0 0 C0 0.99 0 1.98 0 3 C-0.66 2.67 -1.32 2.34 -2 2 C-1.34 1.34 -0.68 0.68 0 0 Z " fill="#000000" transform="translate(135,504)"/>
<path d="M0 0 C0.66 0 1.32 0 2 0 C2 0.66 2 1.32 2 2 C1.01 1.67 0.02 1.34 -1 1 C-0.67 0.67 -0.34 0.34 0 0 Z " fill="#000000" transform="translate(1876,416)"/>
<path d="M0 0 C0.99 0.99 1.98 1.98 3 3 C2.01 2.67 1.02 2.34 0 2 C0 1.34 0 0.68 0 0 Z " fill="#000000" transform="translate(1769,411)"/>
<path d="M0 0 C0.99 0.33 1.98 0.66 3 1 C2.67 1.66 2.34 2.32 2 3 C1.34 2.01 0.68 1.02 0 0 Z " fill="#000000" transform="translate(1409,407)"/>
<path d="M0 0 C0.99 0.99 1.98 1.98 3 3 C2.01 2.67 1.02 2.34 0 2 C0 1.34 0 0.68 0 0 Z " fill="#000000" transform="translate(550,394)"/>
<path d="M0 0 C0 0.99 0 1.98 0 3 C-0.66 2.67 -1.32 2.34 -2 2 C-1.34 1.34 -0.68 0.68 0 0 Z " fill="#000000" transform="translate(1381,359)"/>
<path d="M0 0 C0.66 1.32 1.32 2.64 2 4 C1.34 3.67 0.68 3.34 0 3 C0 2.01 0 1.02 0 0 Z " fill="#000000" transform="translate(2025,351)"/>
<path d="M0 0 C0.33 0 0.66 0 1 0 C1 1.65 1 3.3 1 5 C0.67 5 0.34 5 0 5 C0 3.35 0 1.7 0 0 Z " fill="#000000" transform="translate(934,346)"/>
<path d="M0 0 C1.65 0 3.3 0 5 0 C5 0.33 5 0.66 5 1 C3.35 1 1.7 1 0 1 C0 0.67 0 0.34 0 0 Z " fill="#000000" transform="translate(736,316)"/>
<path d="M0 0 C1.65 0 3.3 0 5 0 C5 0.33 5 0.66 5 1 C3.35 1 1.7 1 0 1 C0 0.67 0 0.34 0 0 Z " fill="#000000" transform="translate(671,316)"/>
<path d="M0 0 C0.66 0.33 1.32 0.66 2 1 C0.51 1.99 0.51 1.99 -1 3 C-0.67 2.01 -0.34 1.02 0 0 Z " fill="#000000" transform="translate(236,264)"/>
<path d="M0 0 C0.99 0.33 1.98 0.66 3 1 C1.68 1.33 0.36 1.66 -1 2 C-0.67 1.34 -0.34 0.68 0 0 Z " fill="#000000" transform="translate(82,198)"/>
<path d="M0 0 C4 1 4 1 4 1 Z " fill="#000000" transform="translate(1789,423)"/>
<path d="M0 0 C0.99 0.33 1.98 0.66 3 1 C2.01 1 1.02 1 0 1 C0 0.67 0 0.34 0 0 Z " fill="#000000" transform="translate(1776,417)"/>
<path d="M0 0 C0.99 0.33 1.98 0.66 3 1 C2.01 1 1.02 1 0 1 C0 0.67 0 0.34 0 0 Z " fill="#000000" transform="translate(657,417)"/>
<path d="M0 0 C0.66 0.33 1.32 0.66 2 1 C1.01 1 0.02 1 -1 1 C-0.67 0.67 -0.34 0.34 0 0 Z " fill="#000000" transform="translate(1075,416)"/>
<path d="M0 0 C0.99 0.33 1.98 0.66 3 1 C2.01 1 1.02 1 0 1 C0 0.67 0 0.34 0 0 Z " fill="#000000" transform="translate(1773,415)"/>
<path d="M0 0 C0.99 0.33 1.98 0.66 3 1 C2.01 1 1.02 1 0 1 C0 0.67 0 0.34 0 0 Z " fill="#000000" transform="translate(654,415)"/>
<path d="M0 0 C0.99 0.5 0.99 0.5 2 1 C1.67 1.66 1.34 2.32 1 3 C0.67 2.01 0.34 1.02 0 0 Z " fill="#000000" transform="translate(1764,405)"/>
<path d="M0 0 C0.99 0.5 0.99 0.5 2 1 C1.67 1.66 1.34 2.32 1 3 C0.67 2.01 0.34 1.02 0 0 Z " fill="#000000" transform="translate(889,403)"/>
<path d="M0 0 C0.99 0.33 1.98 0.66 3 1 C2.01 1 1.02 1 0 1 C0 0.67 0 0.34 0 0 Z " fill="#000000" transform="translate(545,390)"/>
<path d="M0 0 C1 4 1 4 1 4 Z " fill="#000000" transform="translate(933,359)"/>
<path d="M0 0 C1 4 1 4 1 4 Z " fill="#000000" transform="translate(934,355)"/>
<path d="M0 0 C0 3 0 3 0 3 Z " fill="#000000" transform="translate(1761,338)"/>
<path d="M0 0 C0.66 0.33 1.32 0.66 2 1 C1.01 1 0.02 1 -1 1 C-0.67 0.67 -0.34 0.34 0 0 Z " fill="#000000" transform="translate(578,318)"/>
<path d="M0 0 C4 1 4 1 4 1 Z " fill="#000000" transform="translate(1788,317)"/>
<path d="M0 0 C4 1 4 1 4 1 Z " fill="#000000" transform="translate(1061,317)"/>
<path d="M0 0 C4 1 4 1 4 1 Z " fill="#000000" transform="translate(741,317)"/>
<path d="M0 0 C4 1 4 1 4 1 Z " fill="#000000" transform="translate(667,317)"/>
<path d="M0 0 C0.33 0.66 0.66 1.32 1 2 C0.34 1.67 -0.32 1.34 -1 1 C-0.67 0.67 -0.34 0.34 0 0 Z " fill="#000000" transform="translate(384,507)"/>
<path d="" fill="#000000" transform="translate(0,0)"/>
<path d="M0 0 C0.66 0 1.32 0 2 0 C1.67 0.66 1.34 1.32 1 2 C0.67 1.34 0.34 0.68 0 0 Z " fill="#000000" transform="translate(311,424)"/>
<path d="M0 0 C3 1 3 1 3 1 Z " fill="#000000" transform="translate(1786,422)"/>
<path d="M0 0 C3 1 3 1 3 1 Z " fill="#000000" transform="translate(1062,422)"/>
<path d="M0 0 C3 1 3 1 3 1 Z " fill="#000000" transform="translate(742,422)"/>
<path d="M0 0 C3 1 3 1 3 1 Z " fill="#000000" transform="translate(667,422)"/>
<path d="M0 0 C3 1 3 1 3 1 Z " fill="#000000" transform="translate(1065,421)"/>
<path d="M0 0 C3 1 3 1 3 1 Z " fill="#000000" transform="translate(664,421)"/>
<path d="M0 0 C0.66 0.66 1.32 1.32 2 2 C1.34 2 0.68 2 0 2 C0 1.34 0 0.68 0 0 Z " fill="#000000" transform="translate(1387,419)"/>
<path d="M0 0 C0.66 0.66 1.32 1.32 2 2 C1.34 2 0.68 2 0 2 C0 1.34 0 0.68 0 0 Z " fill="#000000" transform="translate(892,407)"/>
<path d="M0 0 C0.66 0 1.32 0 2 0 C1.67 0.66 1.34 1.32 1 2 C0.67 1.34 0.34 0.68 0 0 Z " fill="#000000" transform="translate(1407,405)"/>
<path d="M0 0 C0.33 0.66 0.66 1.32 1 2 C0.34 1.67 -0.32 1.34 -1 1 C-0.67 0.67 -0.34 0.34 0 0 Z " fill="#000000" transform="translate(767,404)"/>
<path d="M0 0 C0.66 0.66 1.32 1.32 2 2 C1.34 2 0.68 2 0 2 C0 1.34 0 0.68 0 0 Z " fill="#000000" transform="translate(1362,395)"/>
<path d="M0 0 C0.66 0.66 1.32 1.32 2 2 C1.34 2 0.68 2 0 2 C0 1.34 0 0.68 0 0 Z " fill="#000000" transform="translate(1328,363)"/>
<path d="M0 0 C0.99 0.5 0.99 0.5 2 1 C1.01 1.5 1.01 1.5 0 2 C0 1.34 0 0.68 0 0 Z " fill="#000000" transform="translate(1358,347)"/>
<path d="" fill="#000000" transform="translate(0,0)"/>
<path d="M0 0 C0.99 0.5 0.99 0.5 2 1 C1.01 1.5 1.01 1.5 0 2 C0 1.34 0 0.68 0 0 Z " fill="#000000" transform="translate(1377,329)"/>
<path d="M0 0 C0.66 0 1.32 0 2 0 C1.67 0.66 1.34 1.32 1 2 C0.67 1.34 0.34 0.68 0 0 Z " fill="#000000" transform="translate(1325,327)"/>
<path d="M0 0 C0.99 0.5 0.99 0.5 2 1 C1.01 1.5 1.01 1.5 0 2 C0 1.34 0 0.68 0 0 Z " fill="#000000" transform="translate(1382,324)"/>
<path d="M0 0 C0.33 0.66 0.66 1.32 1 2 C0.34 1.67 -0.32 1.34 -1 1 C-0.67 0.67 -0.34 0.34 0 0 Z " fill="#000000" transform="translate(1388,319)"/>
<path d="M0 0 C3 1 3 1 3 1 Z " fill="#000000" transform="translate(1785,318)"/>
<path d="M0 0 C3 1 3 1 3 1 Z " fill="#000000" transform="translate(910,318)"/>
<path d="M0 0 C3 1 3 1 3 1 Z " fill="#000000" transform="translate(664,318)"/>
<path d="M0 0 C3 1 3 1 3 1 Z " fill="#000000" transform="translate(904,316)"/>
<path d="M0 0 C0.99 0.5 0.99 0.5 2 1 C1.01 1.5 1.01 1.5 0 2 C0 1.34 0 0.68 0 0 Z " fill="#000000" transform="translate(192,307)"/>
<path d="M0 0 C0.99 0.5 0.99 0.5 2 1 C1.01 1.5 1.01 1.5 0 2 C0 1.34 0 0.68 0 0 Z " fill="#000000" transform="translate(243,257)"/>
<path d="M0 0 C0.99 0.5 0.99 0.5 2 1 C1.01 1.5 1.01 1.5 0 2 C0 1.34 0 0.68 0 0 Z " fill="#000000" transform="translate(248,252)"/>
<path d="M0 0 C2 1 2 1 2 1 Z " fill="#000000" transform="translate(1708,504)"/>
<path d="" fill="#000000" transform="translate(0,0)"/>
<path d="" fill="#000000" transform="translate(0,0)"/>
<path d="M0 0 C2 1 2 1 2 1 Z " fill="#000000" transform="translate(1869,420)"/>
<path d="" fill="#000000" transform="translate(0,0)"/>
<path d="M0 0 C2 1 2 1 2 1 Z " fill="#000000" transform="translate(662,420)"/>
<path d="M0 0 C2 1 2 1 2 1 Z " fill="#000000" transform="translate(1871,419)"/>
<path d="M0 0 C2 1 2 1 2 1 Z " fill="#000000" transform="translate(1779,419)"/>
<path d="M0 0 C2 1 2 1 2 1 Z " fill="#000000" transform="translate(750,419)"/>
<path d="M0 0 C2 1 2 1 2 1 Z " fill="#000000" transform="translate(660,419)"/>
<path d="M0 0 C2 1 2 1 2 1 Z " fill="#000000" transform="translate(1873,418)"/>
<path d="" fill="#000000" transform="translate(0,0)"/>
<path d="M0 0 C2 1 2 1 2 1 Z " fill="#000000" transform="translate(753,417)"/>
<path d="" fill="#000000" transform="translate(0,0)"/>
<path d="M0 0 C2 1 2 1 2 1 Z " fill="#000000" transform="translate(1078,414)"/>
<path d="" fill="#000000" transform="translate(0,0)"/>
<path d="" fill="#000000" transform="translate(0,0)"/>
<path d="" fill="#000000" transform="translate(0,0)"/>
<path d="" fill="#000000" transform="translate(0,0)"/>
<path d="" fill="#000000" transform="translate(0,0)"/>
<path d="" fill="#000000" transform="translate(0,0)"/>
<path d="" fill="#000000" transform="translate(0,0)"/>
<path d="" fill="#000000" transform="translate(0,0)"/>
<path d="" fill="#000000" transform="translate(0,0)"/>
<path d="" fill="#000000" transform="translate(0,0)"/>
<path d="" fill="#000000" transform="translate(0,0)"/>
<path d="" fill="#000000" transform="translate(0,0)"/>
<path d="" fill="#000000" transform="translate(0,0)"/>
<path d="" fill="#000000" transform="translate(0,0)"/>
<path d="" fill="#000000" transform="translate(0,0)"/>
<path d="M0 0 C2 1 2 1 2 1 Z " fill="#000000" transform="translate(739,397)"/>
<path d="" fill="#000000" transform="translate(0,0)"/>
<path d="M0 0 C2 1 2 1 2 1 Z " fill="#000000" transform="translate(1895,396)"/>
<path d="" fill="#000000" transform="translate(0,0)"/>
<path d="" fill="#000000" transform="translate(0,0)"/>
<path d="M0 0 C2 1 2 1 2 1 Z " fill="#000000" transform="translate(1544,385)"/>
<path d="" fill="#000000" transform="translate(0,0)"/>
<path d="" fill="#000000" transform="translate(0,0)"/>
<path d="" fill="#000000" transform="translate(0,0)"/>
<path d="" fill="#000000" transform="translate(0,0)"/>
<path d="" fill="#000000" transform="translate(0,0)"/>
<path d="" fill="#000000" transform="translate(0,0)"/>
<path d="" fill="#000000" transform="translate(0,0)"/>
<path d="" fill="#000000" transform="translate(0,0)"/>
<path d="" fill="#000000" transform="translate(0,0)"/>
<path d="" fill="#000000" transform="translate(0,0)"/>
<path d="" fill="#000000" transform="translate(0,0)"/>
<path d="" fill="#000000" transform="translate(0,0)"/>
<path d="" fill="#000000" transform="translate(0,0)"/>
<path d="" fill="#000000" transform="translate(0,0)"/>
<path d="" fill="#000000" transform="translate(0,0)"/>
<path d="" fill="#000000" transform="translate(0,0)"/>
<path d="" fill="#000000" transform="translate(0,0)"/>
<path d="" fill="#000000" transform="translate(0,0)"/>
<path d="" fill="#000000" transform="translate(0,0)"/>
<path d="" fill="#000000" transform="translate(0,0)"/>
<path d="" fill="#000000" transform="translate(0,0)"/>
<path d="" fill="#000000" transform="translate(0,0)"/>
<path d="" fill="#000000" transform="translate(0,0)"/>
<path d="" fill="#000000" transform="translate(0,0)"/>
<path d="M0 0 C2 1 2 1 2 1 Z " fill="#000000" transform="translate(561,333)"/>
<path d="M0 0 C2 1 2 1 2 1 Z " fill="#000000" transform="translate(1774,324)"/>
<path d="M0 0 C2 1 2 1 2 1 Z " fill="#000000" transform="translate(1076,324)"/>
<path d="M0 0 C2 1 2 1 2 1 Z " fill="#000000" transform="translate(1875,323)"/>
<path d="M0 0 C2 1 2 1 2 1 Z " fill="#000000" transform="translate(1073,322)"/>
<path d="M0 0 C2 1 2 1 2 1 Z " fill="#000000" transform="translate(753,322)"/>
<path d="M0 0 C2 1 2 1 2 1 Z " fill="#000000" transform="translate(1870,320)"/>
<path d="M0 0 C2 1 2 1 2 1 Z " fill="#000000" transform="translate(1781,320)"/>
<path d="M0 0 C2 1 2 1 2 1 Z " fill="#000000" transform="translate(1868,319)"/>
<path d="M0 0 C2 1 2 1 2 1 Z " fill="#000000" transform="translate(1783,319)"/>
<path d="" fill="#000000" transform="translate(0,0)"/>
<path d="M0 0 C2 1 2 1 2 1 Z " fill="#000000" transform="translate(913,319)"/>
<path d="M0 0 C2 1 2 1 2 1 Z " fill="#000000" transform="translate(747,319)"/>
<path d="M0 0 C2 1 2 1 2 1 Z " fill="#000000" transform="translate(662,319)"/>
<path d="" fill="#000000" transform="translate(0,0)"/>
<path d="M0 0 C2 1 2 1 2 1 Z " fill="#000000" transform="translate(1865,318)"/>
<path d="M0 0 C2 1 2 1 2 1 Z " fill="#000000" transform="translate(1065,318)"/>
<path d="M0 0 C2 1 2 1 2 1 Z " fill="#000000" transform="translate(745,318)"/>
<path d="M0 0 C2 1 2 1 2 1 Z " fill="#000000" transform="translate(908,317)"/>
<path d="M0 0 C2 1 2 1 2 1 Z " fill="#000000" transform="translate(1391,316)"/>
<path d="" fill="#000000" transform="translate(0,0)"/>
<path d="M0 0 C2 1 2 1 2 1 Z " fill="#000000" transform="translate(304,199)"/>
<path d="M0 0 C2 1 2 1 2 1 Z " fill="#000000" transform="translate(306,198)"/>
<path d="" fill="#000000" transform="translate(0,0)"/>
<path d="" fill="#000000" transform="translate(0,0)"/>
<path d="" fill="#000000" transform="translate(0,0)"/>
<path d="" fill="#000000" transform="translate(0,0)"/>
<path d="" fill="#000000" transform="translate(0,0)"/>
<path d="" fill="#000000" transform="translate(0,0)"/>
<path d="" fill="#000000" transform="translate(0,0)"/>
<path d="" fill="#000000" transform="translate(0,0)"/>
<path d="" fill="#000000" transform="translate(0,0)"/>
<path d="" fill="#000000" transform="translate(0,0)"/>
<path d="" fill="#000000" transform="translate(0,0)"/>
<path d="" fill="#000000" transform="translate(0,0)"/>
<path d="" fill="#000000" transform="translate(0,0)"/>
<path d="" fill="#000000" transform="translate(0,0)"/>
<path d="" fill="#000000" transform="translate(0,0)"/>
<path d="" fill="#000000" transform="translate(0,0)"/>
<path d="" fill="#000000" transform="translate(0,0)"/>
<path d="" fill="#000000" transform="translate(0,0)"/>
<path d="" fill="#000000" transform="translate(0,0)"/>
<path d="" fill="#000000" transform="translate(0,0)"/>
<path d="" fill="#000000" transform="translate(0,0)"/>
<path d="" fill="#000000" transform="translate(0,0)"/>
<path d="" fill="#000000" transform="translate(0,0)"/>
<path d="" fill="#000000" transform="translate(0,0)"/>
<path d="" fill="#000000" transform="translate(0,0)"/>
<path d="" fill="#000000" transform="translate(0,0)"/>
<path d="" fill="#000000" transform="translate(0,0)"/>
<path d="" fill="#000000" transform="translate(0,0)"/>
<path d="" fill="#000000" transform="translate(0,0)"/>
<path d="" fill="#000000" transform="translate(0,0)"/>
<path d="" fill="#000000" transform="translate(0,0)"/>
<path d="" fill="#000000" transform="translate(0,0)"/>
<path d="" fill="#000000" transform="translate(0,0)"/>
<path d="" fill="#000000" transform="translate(0,0)"/>
<path d="" fill="#000000" transform="translate(0,0)"/>
<path d="" fill="#000000" transform="translate(0,0)"/>
<path d="" fill="#000000" transform="translate(0,0)"/>
<path d="" fill="#000000" transform="translate(0,0)"/>
<path d="" fill="#000000" transform="translate(0,0)"/>
<path d="" fill="#000000" transform="translate(0,0)"/>
<path d="" fill="#000000" transform="translate(0,0)"/>
<path d="" fill="#000000" transform="translate(0,0)"/>
<path d="" fill="#000000" transform="translate(0,0)"/>
<path d="" fill="#000000" transform="translate(0,0)"/>
<path d="" fill="#000000" transform="translate(0,0)"/>
<path d="" fill="#000000" transform="translate(0,0)"/>
<path d="" fill="#000000" transform="translate(0,0)"/>
<path d="" fill="#000000" transform="translate(0,0)"/>
<path d="" fill="#000000" transform="translate(0,0)"/>
<path d="" fill="#000000" transform="translate(0,0)"/>
<path d="" fill="#000000" transform="translate(0,0)"/>
<path d="" fill="#000000" transform="translate(0,0)"/>
<path d="" fill="#000000" transform="translate(0,0)"/>
<path d="" fill="#000000" transform="translate(0,0)"/>
<path d="" fill="#000000" transform="translate(0,0)"/>
<path d="" fill="#000000" transform="translate(0,0)"/>
<path d="" fill="#000000" transform="translate(0,0)"/>
<path d="" fill="#000000" transform="translate(0,0)"/>
<path d="" fill="#000000" transform="translate(0,0)"/>
<path d="" fill="#000000" transform="translate(0,0)"/>
<path d="" fill="#000000" transform="translate(0,0)"/>
<path d="" fill="#000000" transform="translate(0,0)"/>
<path d="" fill="#000000" transform="translate(0,0)"/>
<path d="" fill="#000000" transform="translate(0,0)"/>
<path d="" fill="#000000" transform="translate(0,0)"/>
<path d="" fill="#000000" transform="translate(0,0)"/>
<path d="" fill="#000000" transform="translate(0,0)"/>
<path d="" fill="#000000" transform="translate(0,0)"/>
<path d="" fill="#000000" transform="translate(0,0)"/>
<path d="" fill="#000000" transform="translate(0,0)"/>
<path d="" fill="#000000" transform="translate(0,0)"/>
<path d="" fill="#000000" transform="translate(0,0)"/>
<path d="" fill="#000000" transform="translate(0,0)"/>
<path d="" fill="#000000" transform="translate(0,0)"/>
<path d="" fill="#000000" transform="translate(0,0)"/>
<path d="" fill="#000000" transform="translate(0,0)"/>
<path d="" fill="#000000" transform="translate(0,0)"/>
<path d="" fill="#000000" transform="translate(0,0)"/>
<path d="" fill="#000000" transform="translate(0,0)"/>
<path d="" fill="#000000" transform="translate(0,0)"/>
<path d="" fill="#000000" transform="translate(0,0)"/>
<path d="" fill="#000000" transform="translate(0,0)"/>
<path d="" fill="#000000" transform="translate(0,0)"/>
<path d="" fill="#000000" transform="translate(0,0)"/>
<path d="" fill="#000000" transform="translate(0,0)"/>
<path d="" fill="#000000" transform="translate(0,0)"/>
<path d="" fill="#000000" transform="translate(0,0)"/>
<path d="" fill="#000000" transform="translate(0,0)"/>
<path d="" fill="#000000" transform="translate(0,0)"/>
<path d="" fill="#000000" transform="translate(0,0)"/>
<path d="" fill="#000000" transform="translate(0,0)"/>
<path d="" fill="#000000" transform="translate(0,0)"/>
<path d="" fill="#000000" transform="translate(0,0)"/>
<path d="" fill="#000000" transform="translate(0,0)"/>
<path d="" fill="#000000" transform="translate(0,0)"/>
<path d="" fill="#000000" transform="translate(0,0)"/>
<path d="" fill="#000000" transform="translate(0,0)"/>
<path d="" fill="#000000" transform="translate(0,0)"/>
<path d="" fill="#000000" transform="translate(0,0)"/>
<path d="" fill="#000000" transform="translate(0,0)"/>
<path d="" fill="#000000" transform="translate(0,0)"/>
<path d="" fill="#000000" transform="translate(0,0)"/>
<path d="" fill="#000000" transform="translate(0,0)"/>
<path d="" fill="#000000" transform="translate(0,0)"/>
<path d="" fill="#000000" transform="translate(0,0)"/>
<path d="" fill="#000000" transform="translate(0,0)"/>
<path d="" fill="#000000" transform="translate(0,0)"/>
<path d="" fill="#000000" transform="translate(0,0)"/>
<path d="" fill="#000000" transform="translate(0,0)"/>
<path d="" fill="#000000" transform="translate(0,0)"/>
<path d="" fill="#000000" transform="translate(0,0)"/>
<path d="" fill="#000000" transform="translate(0,0)"/>
<path d="" fill="#000000" transform="translate(0,0)"/>
<path d="" fill="#000000" transform="translate(0,0)"/>
<path d="" fill="#000000" transform="translate(0,0)"/>
<path d="" fill="#000000" transform="translate(0,0)"/>
<path d="" fill="#000000" transform="translate(0,0)"/>
<path d="" fill="#000000" transform="translate(0,0)"/>
<path d="" fill="#000000" transform="translate(0,0)"/>
<path d="" fill="#000000" transform="translate(0,0)"/>
<path d="" fill="#000000" transform="translate(0,0)"/>
<path d="" fill="#000000" transform="translate(0,0)"/>
<path d="" fill="#000000" transform="translate(0,0)"/>
<path d="" fill="#000000" transform="translate(0,0)"/>
<path d="" fill="#000000" transform="translate(0,0)"/>
<path d="" fill="#000000" transform="translate(0,0)"/>
<path d="" fill="#000000" transform="translate(0,0)"/>
<path d="" fill="#000000" transform="translate(0,0)"/>
<path d="" fill="#000000" transform="translate(0,0)"/>
<path d="" fill="#000000" transform="translate(0,0)"/>
<path d="" fill="#000000" transform="translate(0,0)"/>
<path d="" fill="#000000" transform="translate(0,0)"/>
<path d="" fill="#000000" transform="translate(0,0)"/>
<path d="" fill="#000000" transform="translate(0,0)"/>
<path d="" fill="#000000" transform="translate(0,0)"/>
<path d="" fill="#000000" transform="translate(0,0)"/>
<path d="" fill="#000000" transform="translate(0,0)"/>
<path d="" fill="#000000" transform="translate(0,0)"/>
<path d="" fill="#000000" transform="translate(0,0)"/>
<path d="" fill="#000000" transform="translate(0,0)"/>
<path d="" fill="#000000" transform="translate(0,0)"/>
<path d="" fill="#000000" transform="translate(0,0)"/>
<path d="" fill="#000000" transform="translate(0,0)"/>
<path d="" fill="#000000" transform="translate(0,0)"/>
<path d="" fill="#000000" transform="translate(0,0)"/>
<path d="" fill="#000000" transform="translate(0,0)"/>
<path d="" fill="#000000" transform="translate(0,0)"/>
<path d="" fill="#000000" transform="translate(0,0)"/>
<path d="" fill="#000000" transform="translate(0,0)"/>
<path d="" fill="#000000" transform="translate(0,0)"/>
<path d="" fill="#000000" transform="translate(0,0)"/>
<path d="" fill="#000000" transform="translate(0,0)"/>
<path d="" fill="#000000" transform="translate(0,0)"/>
<path d="" fill="#000000" transform="translate(0,0)"/>
<path d="" fill="#000000" transform="translate(0,0)"/>
<path d="" fill="#000000" transform="translate(0,0)"/>
<path d="" fill="#000000" transform="translate(0,0)"/>
<path d="" fill="#000000" transform="translate(0,0)"/>
<path d="" fill="#000000" transform="translate(0,0)"/>
<path d="" fill="#000000" transform="translate(0,0)"/>
<path d="" fill="#000000" transform="translate(0,0)"/>
<path d="" fill="#000000" transform="translate(0,0)"/>
<path d="" fill="#000000" transform="translate(0,0)"/>
<path d="" fill="#000000" transform="translate(0,0)"/>
<path d="" fill="#000000" transform="translate(0,0)"/>
<path d="" fill="#000000" transform="translate(0,0)"/>
<path d="" fill="#000000" transform="translate(0,0)"/>
<path d="" fill="#000000" transform="translate(0,0)"/>
<path d="" fill="#000000" transform="translate(0,0)"/>
<path d="" fill="#000000" transform="translate(0,0)"/>
<path d="" fill="#000000" transform="translate(0,0)"/>
<path d="" fill="#000000" transform="translate(0,0)"/>
<path d="" fill="#000000" transform="translate(0,0)"/>
<path d="" fill="#000000" transform="translate(0,0)"/>
<path d="" fill="#000000" transform="translate(0,0)"/>
<path d="" fill="#000000" transform="translate(0,0)"/>
<path d="" fill="#000000" transform="translate(0,0)"/>
<path d="" fill="#000000" transform="translate(0,0)"/>
<path d="" fill="#000000" transform="translate(0,0)"/>
<path d="" fill="#000000" transform="translate(0,0)"/>
<path d="" fill="#000000" transform="translate(0,0)"/>
<path d="" fill="#000000" transform="translate(0,0)"/>
<path d="" fill="#000000" transform="translate(0,0)"/>
<path d="" fill="#000000" transform="translate(0,0)"/>
<path d="" fill="#000000" transform="translate(0,0)"/>
<path d="" fill="#000000" transform="translate(0,0)"/>
<path d="" fill="#000000" transform="translate(0,0)"/>
<path d="" fill="#000000" transform="translate(0,0)"/>
<path d="" fill="#000000" transform="translate(0,0)"/>
<path d="" fill="#000000" transform="translate(0,0)"/>
<path d="" fill="#000000" transform="translate(0,0)"/>
<path d="" fill="#000000" transform="translate(0,0)"/>
<path d="" fill="#000000" transform="translate(0,0)"/>
<path d="" fill="#000000" transform="translate(0,0)"/>
<path d="" fill="#000000" transform="translate(0,0)"/>
<path d="" fill="#000000" transform="translate(0,0)"/>
<path d="" fill="#000000" transform="translate(0,0)"/>
<path d="" fill="#000000" transform="translate(0,0)"/>
<path d="" fill="#000000" transform="translate(0,0)"/>
<path d="" fill="#000000" transform="translate(0,0)"/>
<path d="" fill="#000000" transform="translate(0,0)"/>
<path d="" fill="#000000" transform="translate(0,0)"/>
<path d="" fill="#000000" transform="translate(0,0)"/>
<path d="" fill="#000000" transform="translate(0,0)"/>
<path d="" fill="#000000" transform="translate(0,0)"/>
<path d="" fill="#000000" transform="translate(0,0)"/>
<path d="" fill="#000000" transform="translate(0,0)"/>
<path d="" fill="#000000" transform="translate(0,0)"/>
<path d="" fill="#000000" transform="translate(0,0)"/>
<path d="" fill="#000000" transform="translate(0,0)"/>
<path d="" fill="#000000" transform="translate(0,0)"/>
<path d="" fill="#000000" transform="translate(0,0)"/>
<path d="" fill="#000000" transform="translate(0,0)"/>
<path d="" fill="#000000" transform="translate(0,0)"/>
<path d="" fill="#000000" transform="translate(0,0)"/>
<path d="" fill="#000000" transform="translate(0,0)"/>
<path d="" fill="#000000" transform="translate(0,0)"/>
<path d="" fill="#000000" transform="translate(0,0)"/>
<path d="" fill="#000000" transform="translate(0,0)"/>
<path d="" fill="#000000" transform="translate(0,0)"/>
<path d="" fill="#000000" transform="translate(0,0)"/>
<path d="" fill="#000000" transform="translate(0,0)"/>
<path d="" fill="#000000" transform="translate(0,0)"/>
<path d="" fill="#000000" transform="translate(0,0)"/>
<path d="" fill="#000000" transform="translate(0,0)"/>
<path d="" fill="#000000" transform="translate(0,0)"/>
<path d="" fill="#000000" transform="translate(0,0)"/>
<path d="" fill="#000000" transform="translate(0,0)"/>
<path d="" fill="#000000" transform="translate(0,0)"/>
<path d="" fill="#000000" transform="translate(0,0)"/>
<path d="" fill="#000000" transform="translate(0,0)"/>
<path d="" fill="#000000" transform="translate(0,0)"/>
<path d="" fill="#000000" transform="translate(0,0)"/>
<path d="" fill="#000000" transform="translate(0,0)"/>
<path d="" fill="#000000" transform="translate(0,0)"/>
<path d="" fill="#000000" transform="translate(0,0)"/>
<path d="" fill="#000000" transform="translate(0,0)"/>
<path d="" fill="#000000" transform="translate(0,0)"/>
<path d="" fill="#000000" transform="translate(0,0)"/>
<path d="" fill="#000000" transform="translate(0,0)"/>
<path d="" fill="#000000" transform="translate(0,0)"/>
<path d="" fill="#000000" transform="translate(0,0)"/>
<path d="" fill="#000000" transform="translate(0,0)"/>
<path d="" fill="#000000" transform="translate(0,0)"/>
<path d="" fill="#000000" transform="translate(0,0)"/>
<path d="" fill="#000000" transform="translate(0,0)"/>
<path d="" fill="#000000" transform="translate(0,0)"/>
<path d="" fill="#000000" transform="translate(0,0)"/>
<path d="" fill="#000000" transform="translate(0,0)"/>
<path d="" fill="#000000" transform="translate(0,0)"/>
<path d="" fill="#000000" transform="translate(0,0)"/>
<path d="" fill="#000000" transform="translate(0,0)"/>
<path d="" fill="#000000" transform="translate(0,0)"/>
<path d="" fill="#000000" transform="translate(0,0)"/>
<path d="" fill="#000000" transform="translate(0,0)"/>
<path d="" fill="#000000" transform="translate(0,0)"/>
<path d="" fill="#000000" transform="translate(0,0)"/>
<path d="" fill="#000000" transform="translate(0,0)"/>
<path d="" fill="#000000" transform="translate(0,0)"/>
<path d="" fill="#000000" transform="translate(0,0)"/>
<path d="" fill="#000000" transform="translate(0,0)"/>
<path d="" fill="#000000" transform="translate(0,0)"/>
<path d="" fill="#000000" transform="translate(0,0)"/>
<path d="" fill="#000000" transform="translate(0,0)"/>
<path d="" fill="#000000" transform="translate(0,0)"/>
<path d="" fill="#000000" transform="translate(0,0)"/>
<path d="" fill="#000000" transform="translate(0,0)"/>
<path d="" fill="#000000" transform="translate(0,0)"/>
<path d="" fill="#000000" transform="translate(0,0)"/>
<path d="" fill="#000000" transform="translate(0,0)"/>
<path d="" fill="#000000" transform="translate(0,0)"/>
<path d="" fill="#000000" transform="translate(0,0)"/>
<path d="" fill="#000000" transform="translate(0,0)"/>
<path d="" fill="#000000" transform="translate(0,0)"/>
<path d="" fill="#000000" transform="translate(0,0)"/>
<path d="" fill="#000000" transform="translate(0,0)"/>
<path d="" fill="#000000" transform="translate(0,0)"/>
<path d="" fill="#000000" transform="translate(0,0)"/>
<path d="" fill="#000000" transform="translate(0,0)"/>
<path d="" fill="#000000" transform="translate(0,0)"/>
<path d="" fill="#000000" transform="translate(0,0)"/>
<path d="" fill="#000000" transform="translate(0,0)"/>
<path d="" fill="#000000" transform="translate(0,0)"/>
<path d="" fill="#000000" transform="translate(0,0)"/>
<path d="" fill="#000000" transform="translate(0,0)"/>
<path d="" fill="#000000" transform="translate(0,0)"/>
<path d="" fill="#000000" transform="translate(0,0)"/>
<path d="" fill="#000000" transform="translate(0,0)"/>
<path d="" fill="#000000" transform="translate(0,0)"/>
<path d="" fill="#000000" transform="translate(0,0)"/>
<path d="" fill="#000000" transform="translate(0,0)"/>
<path d="" fill="#000000" transform="translate(0,0)"/>
<path d="" fill="#000000" transform="translate(0,0)"/>
<path d="" fill="#000000" transform="translate(0,0)"/>
<path d="" fill="#000000" transform="translate(0,0)"/>
<path d="" fill="#000000" transform="translate(0,0)"/>
<path d="" fill="#000000" transform="translate(0,0)"/>
<path d="" fill="#000000" transform="translate(0,0)"/>
<path d="" fill="#000000" transform="translate(0,0)"/>
<path d="" fill="#000000" transform="translate(0,0)"/>
<path d="" fill="#000000" transform="translate(0,0)"/>
<path d="" fill="#000000" transform="translate(0,0)"/>
<path d="" fill="#000000" transform="translate(0,0)"/>
<path d="" fill="#000000" transform="translate(0,0)"/>
<path d="" fill="#000000" transform="translate(0,0)"/>
<path d="" fill="#000000" transform="translate(0,0)"/>
<path d="" fill="#000000" transform="translate(0,0)"/>
<path d="" fill="#000000" transform="translate(0,0)"/>
<path d="" fill="#000000" transform="translate(0,0)"/>
<path d="" fill="#000000" transform="translate(0,0)"/>
<path d="" fill="#000000" transform="translate(0,0)"/>
<path d="" fill="#000000" transform="translate(0,0)"/>
<path d="" fill="#000000" transform="translate(0,0)"/>
<path d="" fill="#000000" transform="translate(0,0)"/>
<path d="" fill="#000000" transform="translate(0,0)"/>
<path d="" fill="#000000" transform="translate(0,0)"/>
<path d="" fill="#000000" transform="translate(0,0)"/>
<path d="" fill="#000000" transform="translate(0,0)"/>
<path d="" fill="#000000" transform="translate(0,0)"/>
<path d="" fill="#000000" transform="translate(0,0)"/>
<path d="" fill="#000000" transform="translate(0,0)"/>
<path d="" fill="#000000" transform="translate(0,0)"/>
<path d="" fill="#000000" transform="translate(0,0)"/>
<path d="" fill="#000000" transform="translate(0,0)"/>
<path d="" fill="#000000" transform="translate(0,0)"/>
<path d="" fill="#000000" transform="translate(0,0)"/>
<path d="" fill="#000000" transform="translate(0,0)"/>
<path d="" fill="#000000" transform="translate(0,0)"/>
<path d="" fill="#000000" transform="translate(0,0)"/>
<path d="" fill="#000000" transform="translate(0,0)"/>
<path d="" fill="#000000" transform="translate(0,0)"/>
<path d="" fill="#000000" transform="translate(0,0)"/>
<path d="" fill="#000000" transform="translate(0,0)"/>
<path d="" fill="#000000" transform="translate(0,0)"/>
<path d="" fill="#000000" transform="translate(0,0)"/>
<path d="" fill="#000000" transform="translate(0,0)"/>
<path d="" fill="#000000" transform="translate(0,0)"/>
<path d="" fill="#000000" transform="translate(0,0)"/>
<path d="" fill="#000000" transform="translate(0,0)"/>
<path d="" fill="#000000" transform="translate(0,0)"/>
<path d="" fill="#000000" transform="translate(0,0)"/>
<path d="" fill="#000000" transform="translate(0,0)"/>
<path d="" fill="#000000" transform="translate(0,0)"/>
<path d="" fill="#000000" transform="translate(0,0)"/>
<path d="" fill="#000000" transform="translate(0,0)"/>
<path d="" fill="#000000" transform="translate(0,0)"/>
<path d="" fill="#000000" transform="translate(0,0)"/>
<path d="" fill="#000000" transform="translate(0,0)"/>
<path d="" fill="#000000" transform="translate(0,0)"/>
<path d="" fill="#000000" transform="translate(0,0)"/>
<path d="" fill="#000000" transform="translate(0,0)"/>
<path d="" fill="#000000" transform="translate(0,0)"/>
<path d="" fill="#000000" transform="translate(0,0)"/>
<path d="" fill="#000000" transform="translate(0,0)"/>
<path d="" fill="#000000" transform="translate(0,0)"/>
<path d="" fill="#000000" transform="translate(0,0)"/>
<path d="" fill="#000000" transform="translate(0,0)"/>
<path d="" fill="#000000" transform="translate(0,0)"/>
<path d="" fill="#000000" transform="translate(0,0)"/>
<path d="" fill="#000000" transform="translate(0,0)"/>
<path d="" fill="#000000" transform="translate(0,0)"/>
<path d="" fill="#000000" transform="translate(0,0)"/>
<path d="" fill="#000000" transform="translate(0,0)"/>
<path d="" fill="#000000" transform="translate(0,0)"/>
<path d="" fill="#000000" transform="translate(0,0)"/>
<path d="" fill="#000000" transform="translate(0,0)"/>
<path d="" fill="#000000" transform="translate(0,0)"/>
<path d="" fill="#000000" transform="translate(0,0)"/>
<path d="" fill="#000000" transform="translate(0,0)"/>
<path d="" fill="#000000" transform="translate(0,0)"/>
<path d="" fill="#000000" transform="translate(0,0)"/>
<path d="" fill="#000000" transform="translate(0,0)"/>
<path d="" fill="#000000" transform="translate(0,0)"/>
<path d="" fill="#000000" transform="translate(0,0)"/>
<path d="" fill="#000000" transform="translate(0,0)"/>
<path d="" fill="#000000" transform="translate(0,0)"/>
<path d="" fill="#000000" transform="translate(0,0)"/>
<path d="" fill="#000000" transform="translate(0,0)"/>
<path d="" fill="#000000" transform="translate(0,0)"/>
<path d="" fill="#000000" transform="translate(0,0)"/>
<path d="" fill="#000000" transform="translate(0,0)"/>
<path d="" fill="#000000" transform="translate(0,0)"/>
<path d="" fill="#000000" transform="translate(0,0)"/>
<path d="" fill="#000000" transform="translate(0,0)"/>
<path d="" fill="#000000" transform="translate(0,0)"/>
<path d="" fill="#000000" transform="translate(0,0)"/>
<path d="" fill="#000000" transform="translate(0,0)"/>
<path d="" fill="#000000" transform="translate(0,0)"/>
<path d="" fill="#000000" transform="translate(0,0)"/>
<path d="" fill="#000000" transform="translate(0,0)"/>
<path d="" fill="#000000" transform="translate(0,0)"/>
<path d="" fill="#000000" transform="translate(0,0)"/>
<path d="" fill="#000000" transform="translate(0,0)"/>
<path d="" fill="#000000" transform="translate(0,0)"/>
<path d="" fill="#000000" transform="translate(0,0)"/>
<path d="" fill="#000000" transform="translate(0,0)"/>
<path d="" fill="#000000" transform="translate(0,0)"/>
<path d="" fill="#000000" transform="translate(0,0)"/>
<path d="" fill="#000000" transform="translate(0,0)"/>
<path d="" fill="#000000" transform="translate(0,0)"/>
<path d="" fill="#000000" transform="translate(0,0)"/>
<path d="" fill="#000000" transform="translate(0,0)"/>
<path d="" fill="#000000" transform="translate(0,0)"/>
<path d="" fill="#000000" transform="translate(0,0)"/>
<path d="" fill="#000000" transform="translate(0,0)"/>
<path d="" fill="#000000" transform="translate(0,0)"/>
<path d="" fill="#000000" transform="translate(0,0)"/>
<path d="" fill="#000000" transform="translate(0,0)"/>
<path d="" fill="#000000" transform="translate(0,0)"/>
<path d="" fill="#000000" transform="translate(0,0)"/>
<path d="" fill="#000000" transform="translate(0,0)"/>
<path d="" fill="#000000" transform="translate(0,0)"/>
<path d="" fill="#000000" transform="translate(0,0)"/>
<path d="" fill="#000000" transform="translate(0,0)"/>
<path d="" fill="#000000" transform="translate(0,0)"/>
<path d="" fill="#000000" transform="translate(0,0)"/>
<path d="" fill="#000000" transform="translate(0,0)"/>
<path d="" fill="#000000" transform="translate(0,0)"/>
<path d="" fill="#000000" transform="translate(0,0)"/>
<path d="" fill="#000000" transform="translate(0,0)"/>
<path d="" fill="#000000" transform="translate(0,0)"/>
<path d="" fill="#000000" transform="translate(0,0)"/>
<path d="" fill="#000000" transform="translate(0,0)"/>
<path d="" fill="#000000" transform="translate(0,0)"/>
<path d="" fill="#000000" transform="translate(0,0)"/>
<path d="" fill="#000000" transform="translate(0,0)"/>
<path d="" fill="#000000" transform="translate(0,0)"/>
<path d="" fill="#000000" transform="translate(0,0)"/>
<path d="" fill="#000000" transform="translate(0,0)"/>
<path d="" fill="#000000" transform="translate(0,0)"/>
<path d="" fill="#000000" transform="translate(0,0)"/>
<path d="" fill="#000000" transform="translate(0,0)"/>
<path d="" fill="#000000" transform="translate(0,0)"/>
<path d="" fill="#000000" transform="translate(0,0)"/>
<path d="" fill="#000000" transform="translate(0,0)"/>
<path d="" fill="#000000" transform="translate(0,0)"/>
<path d="" fill="#000000" transform="translate(0,0)"/>
<path d="" fill="#000000" transform="translate(0,0)"/>
<path d="" fill="#000000" transform="translate(0,0)"/>
<path d="" fill="#000000" transform="translate(0,0)"/>
<path d="" fill="#000000" transform="translate(0,0)"/>
<path d="" fill="#000000" transform="translate(0,0)"/>
<path d="" fill="#000000" transform="translate(0,0)"/>
<path d="" fill="#000000" transform="translate(0,0)"/>
<path d="" fill="#000000" transform="translate(0,0)"/>
<path d="" fill="#000000" transform="translate(0,0)"/>
<path d="" fill="#000000" transform="translate(0,0)"/>
<path d="" fill="#000000" transform="translate(0,0)"/>
<path d="" fill="#000000" transform="translate(0,0)"/>
<path d="" fill="#000000" transform="translate(0,0)"/>
<path d="" fill="#000000" transform="translate(0,0)"/>
<path d="" fill="#000000" transform="translate(0,0)"/>
<path d="" fill="#000000" transform="translate(0,0)"/>
<path d="" fill="#000000" transform="translate(0,0)"/>
<path d="" fill="#000000" transform="translate(0,0)"/>
<path d="" fill="#000000" transform="translate(0,0)"/>
<path d="" fill="#000000" transform="translate(0,0)"/>
<path d="" fill="#000000" transform="translate(0,0)"/>
<path d="" fill="#000000" transform="translate(0,0)"/>
<path d="" fill="#000000" transform="translate(0,0)"/>
<path d="" fill="#000000" transform="translate(0,0)"/>
<path d="" fill="#000000" transform="translate(0,0)"/>
<path d="" fill="#000000" transform="translate(0,0)"/>
<path d="" fill="#000000" transform="translate(0,0)"/>
<path d="" fill="#000000" transform="translate(0,0)"/>
<path d="" fill="#000000" transform="translate(0,0)"/>
<path d="" fill="#000000" transform="translate(0,0)"/>
<path d="" fill="#000000" transform="translate(0,0)"/>
<path d="" fill="#000000" transform="translate(0,0)"/>
<path d="" fill="#000000" transform="translate(0,0)"/>
<path d="" fill="#000000" transform="translate(0,0)"/>
<path d="" fill="#000000" transform="translate(0,0)"/>
<path d="" fill="#000000" transform="translate(0,0)"/>
<path d="" fill="#000000" transform="translate(0,0)"/>
<path d="" fill="#000000" transform="translate(0,0)"/>
<path d="" fill="#000000" transform="translate(0,0)"/>
<path d="" fill="#000000" transform="translate(0,0)"/>
<path d="" fill="#000000" transform="translate(0,0)"/>
<path d="" fill="#000000" transform="translate(0,0)"/>
<path d="" fill="#000000" transform="translate(0,0)"/>
<path d="" fill="#000000" transform="translate(0,0)"/>
<path d="" fill="#000000" transform="translate(0,0)"/>
<path d="" fill="#000000" transform="translate(0,0)"/>
<path d="" fill="#000000" transform="translate(0,0)"/>
<path d="" fill="#000000" transform="translate(0,0)"/>
<path d="" fill="#000000" transform="translate(0,0)"/>
<path d="" fill="#000000" transform="translate(0,0)"/>
<path d="" fill="#000000" transform="translate(0,0)"/>
<path d="" fill="#000000" transform="translate(0,0)"/>
<path d="" fill="#000000" transform="translate(0,0)"/>
<path d="" fill="#000000" transform="translate(0,0)"/>
<path d="" fill="#000000" transform="translate(0,0)"/>
<path d="" fill="#000000" transform="translate(0,0)"/>
<path d="" fill="#000000" transform="translate(0,0)"/>
<path d="" fill="#000000" transform="translate(0,0)"/>
<path d="" fill="#000000" transform="translate(0,0)"/>
<path d="" fill="#000000" transform="translate(0,0)"/>
<path d="" fill="#000000" transform="translate(0,0)"/>
<path d="" fill="#000000" transform="translate(0,0)"/>
<path d="" fill="#000000" transform="translate(0,0)"/>
<path d="" fill="#000000" transform="translate(0,0)"/>
<path d="" fill="#000000" transform="translate(0,0)"/>
<path d="" fill="#000000" transform="translate(0,0)"/>
<path d="" fill="#000000" transform="translate(0,0)"/>
<path d="" fill="#000000" transform="translate(0,0)"/>
<path d="" fill="#000000" transform="translate(0,0)"/>
<path d="" fill="#000000" transform="translate(0,0)"/>
<path d="" fill="#000000" transform="translate(0,0)"/>
<path d="" fill="#000000" transform="translate(0,0)"/>
<path d="" fill="#000000" transform="translate(0,0)"/>
<path d="" fill="#000000" transform="translate(0,0)"/>
<path d="" fill="#000000" transform="translate(0,0)"/>
<path d="" fill="#000000" transform="translate(0,0)"/>
<path d="" fill="#000000" transform="translate(0,0)"/>
<path d="" fill="#000000" transform="translate(0,0)"/>
<path d="" fill="#000000" transform="translate(0,0)"/>
<path d="" fill="#000000" transform="translate(0,0)"/>
<path d="" fill="#000000" transform="translate(0,0)"/>
<path d="" fill="#000000" transform="translate(0,0)"/>
<path d="" fill="#000000" transform="translate(0,0)"/>
<path d="" fill="#000000" transform="translate(0,0)"/>
<path d="" fill="#000000" transform="translate(0,0)"/>
</svg>
